<?xml version="1.0" encoding="utf-8"?>
<!-- Generator: Adobe Illustrator 18.1.0, SVG Export Plug-In . SVG Version: 6.00 Build 0)  -->
<svg version="1.1" id="Layer_1" xmlns="http://www.w3.org/2000/svg" xmlns:xlink="http://www.w3.org/1999/xlink" x="0px" y="0px"
	 viewBox="0 0 666.7 172.8" enable-background="new 0 0 666.7 172.8" xml:space="preserve">
<g>
	<g>
		<polygon fill="#CCCCCC" points="304.6,132 304.6,100.7 308.6,100.7 327.8,125.9 327.8,100.7 331.6,100.7 331.6,132 327.5,132 
			308.4,106.6 308.4,132 		"/>
		<path fill="#CCCCCC" d="M362.6,130.7c-2.5,1-5.2,1.4-8.2,1.4c-11.3,0-17-5.4-17-16.3c0-10.3,5.5-15.4,16.4-15.4
			c3.1,0,6,0.4,8.7,1.3v3.5c-2.7-1-5.5-1.5-8.3-1.5c-8.5,0-12.8,4-12.8,12.1c0,8.7,4.2,13,12.6,13c1.3,0,2.8-0.2,4.5-0.5v-10.6h4
			V130.7L362.6,130.7z"/>
		<path fill="#CCCCCC" d="M369.1,119.9v-19.2h4v19.2c0,6,3,9,9,9c6,0,9-3,9-9v-19.2h4v19.2c0,8.2-4.3,12.3-13,12.3
			C373.4,132.2,369.1,128.1,369.1,119.9z"/>
		<polygon fill="#CCCCCC" points="406.3,100.7 406.3,128.7 422.7,128.7 422.7,132 402.3,132 402.3,100.7 		"/>
		<polygon fill="#CCCCCC" points="428.5,132 424.3,132 439.8,96.6 455.4,132 450.9,132 446.9,122.1 436.5,122.1 437.6,118.9 
			445.5,118.9 439.7,104.7 		"/>
		<path fill="#CCCCCC" d="M459.6,132v-31.3H473c5.9,0,8.9,2.5,8.9,7.5c0,4.1-2.9,7.1-8.7,9l10.7,14.7h-5.3l-9.9-14.1v-2.6
			c6-0.9,9-3.2,9-6.9c0-2.9-1.7-4.3-5-4.3h-8.9V132L459.6,132L459.6,132L459.6,132z"/>
		<path fill="#CCCCCC" d="M499,100.7V123c0,6-3.5,9-10.6,9v-3.3c4.4,0,6.6-1.9,6.6-5.7v-22.2H499z"/>
		<path fill="#CCCCCC" d="M506.3,130.9v-3.7c3.3,1.2,6.8,1.8,10.6,1.8c5.4,0,8.1-2,8.1-5.9c0-3.3-2-5-5.9-5h-4
			c-6.5,0-9.8-2.8-9.8-8.5c0-6,4.2-9,12.6-9c3.6,0,7,0.4,10.2,1.3v3.7c-3.1-1.2-6.5-1.7-10.2-1.7c-5.7,0-8.5,1.9-8.5,5.7
			c0,3.3,1.9,5,5.8,5h4c6.7,0,10,2.8,10,8.5c0,6.1-4,9.2-12.1,9.2C513.1,132.2,509.5,131.8,506.3,130.9z"/>
		<polygon points="305.6,130.9 305.6,99.7 309.7,99.7 328.8,124.9 328.8,99.7 332.6,99.7 332.6,130.9 328.6,130.9 309.4,105.6 
			309.4,130.9 		"/>
		<path d="M363.6,129.7c-2.5,1-5.2,1.4-8.2,1.4c-11.3,0-17-5.4-17-16.3c0-10.3,5.5-15.4,16.4-15.4c3.1,0,6,0.4,8.7,1.3v3.5
			c-2.7-1-5.5-1.5-8.3-1.5c-8.5,0-12.8,4-12.8,12.1c0,8.7,4.2,13,12.6,13c1.3,0,2.8-0.2,4.5-0.5v-10.6h4L363.6,129.7L363.6,129.7z"
			/>
		<path d="M370.1,118.9V99.7h4v19.2c0,6,3,9,9,9c6,0,9-3,9-9V99.7h4v19.2c0,8.2-4.3,12.3-13,12.3
			C374.4,131.2,370.1,127.1,370.1,118.9z"/>
		<polygon points="407.3,99.7 407.3,127.7 423.7,127.7 423.7,130.9 403.3,130.9 403.3,99.7 		"/>
		<polygon points="429.5,130.9 425.3,130.9 440.9,95.6 456.4,130.9 451.9,130.9 447.9,121.1 437.5,121.1 438.7,117.8 446.5,117.8 
			440.7,103.7 		"/>
		<path d="M460.7,130.9V99.7H474c5.9,0,8.9,2.5,8.9,7.5c0,4.1-2.9,7.1-8.7,9l10.7,14.7h-5.3l-9.9-14.1v-2.6c6-0.9,9-3.2,9-6.9
			c0-2.9-1.7-4.3-5-4.3h-8.9v27.9C464.7,130.9,460.7,130.9,460.7,130.9z"/>
		<path fill="#A6120D" d="M500.1,99.7v22.2c0,6-3.5,9-10.6,9v-3.3c4.4,0,6.6-1.9,6.6-5.7V99.7H500.1z"/>
		<path fill="#A6120D" d="M507.3,129.9v-3.7c3.3,1.2,6.8,1.8,10.6,1.8c5.4,0,8.1-2,8.1-5.9c0-3.3-2-5-5.9-5h-4
			c-6.5,0-9.8-2.8-9.8-8.5c0-6,4.2-9,12.6-9c3.6,0,7,0.4,10.2,1.3v3.7c-3.1-1.2-6.5-1.8-10.2-1.8c-5.7,0-8.5,1.9-8.5,5.7
			c0,3.3,1.9,5,5.8,5h4c6.7,0,10,2.8,10,8.5c0,6.1-4,9.2-12.1,9.2C514.1,131.2,510.6,130.7,507.3,129.9z"/>
		<path d="M469.9,147.6l-1.5-4.5h-1.1l2,5.7c0,0.1-0.1,0.3-0.2,0.6c-0.1,0.3-0.2,0.4-0.2,0.4c-0.1,0.1-0.1,0.2-0.2,0.2
			c-0.1,0.1-0.2,0.1-0.4,0.1c-0.1,0-0.1,0-0.2,0c-0.1,0-0.2,0-0.4-0.1v0.8c0.1,0,0.2,0,0.3,0.1c0.1,0,0.2,0,0.3,0
			c0.5,0,0.9-0.2,1.1-0.5c0.2-0.3,0.6-1.2,1.1-2.6c0.2-0.6,0.5-1.4,0.8-2.3c0.5-1.3,0.7-2.1,0.9-2.4h-1L469.9,147.6z M464.4,148
			c-0.7,0-1.1-0.3-1.4-0.9c-0.1-0.3-0.2-0.7-0.2-1.3c0-0.7,0.2-1.2,0.5-1.6c0.3-0.3,0.7-0.5,1.1-0.5c0.5,0,0.9,0.2,1.1,0.6
			c0.3,0.4,0.4,0.9,0.4,1.4c0,0.7-0.1,1.2-0.4,1.6C465.3,147.8,464.9,148,464.4,148z M462,148.7h0.9v-0.7c0.2,0.3,0.4,0.5,0.6,0.6
			c0.3,0.2,0.6,0.3,1.1,0.3c0.8,0,1.3-0.3,1.8-0.9c0.4-0.6,0.6-1.3,0.6-2.2c0-0.9-0.2-1.6-0.6-2.1c-0.4-0.5-1-0.7-1.7-0.7
			c-0.3,0-0.6,0.1-0.9,0.2c-0.3,0.1-0.5,0.3-0.7,0.6V141H462L462,148.7L462,148.7z"/>
	</g>
	<g>
		<polygon fill="#B3B3B3" points="263.1,75.6 226.6,88.5 232.4,136.3 263.1,153.2 294.1,136.1 299.8,88.2 		"/>
		<polygon fill="#A6120D" points="296.2,91 263,79.7 263,149.2 290.8,133.8 		"/>
		<polygon fill="#DD1B16" points="230.7,91.2 235.6,134 263,149.2 263,79.7 		"/>
		<path fill="#F2F2F2" d="M272.1,116.7l-9.1,4.3h-9.6l-4.5,11.3l-8.4,0.2L263,82.2L272.1,116.7z M271.3,114.5l-8.2-16.2l-6.7,15.9
			h6.7L271.3,114.5z"/>
		<polygon fill="#B3B3B3" points="263,82.2 263.1,98.3 270.7,114.3 263,114.3 263,120.9 273.6,120.9 278.6,132.4 286.6,132.6 		"/>
	</g>
	<path d="M514.7,140.9c0.4,0.3,1.2,1,1.2,2.4c0,1.3-0.7,1.9-1.5,2.5c-0.2,0.2-0.5,0.5-0.5,0.9c0,0.4,0.3,0.6,0.5,0.8l0.6,0.5
		c0.8,0.6,1.5,1.2,1.5,2.5c0,1.6-1.6,3.3-4.6,3.3c-2.5,0-3.8-1.2-3.8-2.5c0-0.6,0.3-1.5,1.3-2.1c1.1-0.7,2.6-0.8,3.3-0.8
		c-0.2-0.3-0.5-0.6-0.5-1.2c0-0.3,0.1-0.5,0.2-0.7c-0.2,0-0.4,0-0.6,0c-1.9,0-2.9-1.4-2.9-2.8c0-0.8,0.4-1.7,1.1-2.3
		c1-0.8,2.2-1,3.1-1h3.6l-1.1,0.6L514.7,140.9 M513.4,148.7c-0.1,0-0.2,0-0.4,0c-0.2,0-1.1,0-1.8,0.3c-0.4,0.1-1.5,0.6-1.5,1.8
		c0,1.2,1.2,2.1,3.1,2.1c1.7,0,2.6-0.8,2.6-1.9C515.3,150.1,514.7,149.7,513.4,148.7z M513.9,145.4c0.4-0.4,0.4-1,0.4-1.3
		c0-1.3-0.8-3.2-2.2-3.2c-0.5,0-0.9,0.2-1.2,0.6c-0.3,0.4-0.4,0.8-0.4,1.3c0,1.2,0.7,3.1,2.2,3.1
		C513.2,145.9,513.6,145.7,513.9,145.4z M503.6,148.4c-2.8,0-4.3-2.2-4.3-4.1c0-2.3,1.9-4.3,4.5-4.3c2.6,0,4.2,2,4.2,4.1
		C508.1,146.3,506.5,148.4,503.6,148.4 M505.8,147c0.4-0.6,0.5-1.3,0.5-1.9c0-1.5-0.7-4.5-2.9-4.5c-0.6,0-1.2,0.2-1.6,0.6
		c-0.7,0.6-0.8,1.4-0.8,2.1c0,1.7,0.9,4.6,3,4.6C504.7,147.9,505.4,147.6,505.8,147z M494.1,148.4c-2.8,0-4.3-2.2-4.3-4.1
		c0-2.3,1.9-4.3,4.5-4.3c2.6,0,4.2,2,4.2,4.1C498.6,146.3,497,148.4,494.1,148.4 M496.3,147c0.4-0.6,0.5-1.3,0.5-1.9
		c0-1.5-0.7-4.5-2.9-4.5c-0.6,0-1.2,0.2-1.6,0.6c-0.7,0.6-0.8,1.4-0.8,2.1c0,1.7,0.9,4.6,3,4.6C495.2,147.9,495.9,147.6,496.3,147z
		 M488.5,148.2V146c0-0.2,0-0.7,0-0.8c0-0.1,0.1-0.2,0.2-0.3l0.5-0.4h-3.7l-1.4,0.8l2.7-0.1v2.8c-0.5,0.2-1.1,0.4-2.2,0.4
		c-3.8,0-6.2-3.1-6.2-6.4c0-3.1,2.1-5.2,4.9-5.2c2.1,0,3.2,1.1,3.8,1.7l-0.4,0.7l0.6-0.1l1.5-1.4c-0.4-0.3-1-0.7-2.3-1.1
		c-0.8-0.2-1.7-0.4-2.7-0.4c-4.5,0-7.1,3.2-7.1,6.6c0,2.8,1.8,6.4,6.7,6.4c1,0,1.9-0.1,2.9-0.3L488.5,148.2 M520.2,147.7
		c-0.6-0.1-0.7-0.2-0.7-0.8v-10c0,0,0-0.1,0-0.1c0.1-0.6,0.2-0.7,0.8-1h-2.5l-1.3,0.6h1.3v0l0,0v10.9c0,0.4-0.1,0.4-0.5,0.9h3.1
		l0.7-0.4C520.8,147.7,520.5,147.7,520.2,147.7 M527.4,147.8c-0.2,0.1-0.4,0.2-0.6,0.3c-0.6,0.3-1.2,0.3-1.7,0.3
		c-0.6,0-1.4,0-2.3-0.7c-1.2-0.9-1.8-2.4-1.8-3.7c0-2.7,2.2-4,4-4c0.6,0,1.3,0.2,1.8,0.5c0.9,0.6,1.1,1.3,1.2,1.7l-4.1,1.7l-1.3,0.1
		c0.4,2.2,1.9,3.5,3.6,3.5c0.9,0,1.5-0.3,2.1-0.6L527.4,147.8 M525.7,142.6c0.3-0.1,0.5-0.2,0.5-0.5c0-0.7-0.8-1.5-1.7-1.5
		c-0.7,0-2,0.5-2,2.4c0,0.3,0,0.6,0.1,0.9L525.7,142.6z"/>
</g>
<g>
	<g id="Layer_2_1_" display="none">
		<g id="O3btSA_3_" display="inline">
		</g>
	</g>
	<g id="Layer_1_2_">
		<g>
			<path fill="#FBA919" d="M21.4,20.4c0,0,1.3,4.9,1.4,6.5c0.2,1.6-3.2,5.2-3.2,7s0.7,5,4.7,6.7c4,1.6,4.5,5.8,4.5,8.3
				c0,2.5-1.4,7.4-1.4,7.4s-0.9,12.1,4,14.2c4.9,2.2,3.8,2.2,4.9,2.2c1.1,0,9,3.2,13.7,2c4.7-1.3,5.9-2.7,5.9-2.7s4.7,0.4,6.1-3.8
				c1.4-4.1,2.3-12.8,1.8-16.7c-0.5-4-1.3-9.2,2-11c3.2-1.8,6.7-4,6.1-5.8c-0.5-1.8-3.4-4.3-3.4-4.3s-0.7-4.5-0.2-5.6
				c0.5-1.1,3.8-3.8,2-5.8c-1.8-2-5-2-5-2l-4.1,0.4c0,0-7-6.3-16.2-5.9c-9.2,0.4-14.9,5.9-14.9,5.9s-3.1-1.1-5.8,0
				C21.4,18.4,20.9,17.3,21.4,20.4z"/>
			<path fill="#E78724" d="M37.9,47.2c0,0-3.6,5.5-6.2,9.3c-0.4,0.6,2.6,0.6,2.6,0.6L37.9,47.2z"/>
			<path fill="#E78724" d="M39.6,35.9c0,0-1.1,2.7-1.7,4.1c-0.6,1.5-3.1,2.3-3.1,2.3s1.3-1.3,1.3-4.7c0-1.4,1.8-2,1.8-2L39.6,35.9z"
				/>
			<path fill="#E78724" d="M38.5,37.4c0,0-2.2,2.6-6.3,1.2c-4.1-1.5-4.5-6.7-4.5-8.2s7.8,1.5,8.8,2.1S39.6,35.6,38.5,37.4z"/>
			<path fill="#E78724" d="M23.1,9.4c0,0,3.8-0.7,6.3,1.3c2.5,2,3.3,3.6,3.3,3.6l-4.2,3.4c0,0-2-1-2.7-3.7
				C25.1,11.1,25.5,9.9,23.1,9.4z"/>
			<path fill="#E78724" d="M37.4,29.8c-1.6-2.3-4.3-3.3-6.4-3.5c-3.6-0.3-5.4,1-5.4,1s6,0.3,7.7,2.5c3.2,4.2,7.9,4.5,8.6,3.6
				c-0.9,0-1.8-0.4-2.8-1.3C38.4,31.5,37.9,30.5,37.4,29.8z"/>
			<path fill="#E78724" d="M27.3,38c0,0-6.6-2.3-5.4-4.6c1.3-2.3,0.3-3.6,0.3-3.6s-3.7,2.8-2.8,5.7c0.6,1.8,1.6,3.1,6.9,5.6
				c2.6,4.8,0.5,13.3,0.7,13.4c0.2,0.1,3.6-1.7,3.4-9.7C30.3,42.3,30.1,39,27.3,38z"/>
			<path fill="#E78724" d="M36,13.5c-2.8,1.4-6.6,3.4-6.6,3.4l1.5,0.7c-0.1,0.2-0.2,0.4-0.2,0.4l1.5,0.7c0,0,3.8,2.7,6.1,4.5
				c-0.8-2.4-3-6.1-3-6.1S34.6,15.4,36,13.5z"/>
			<path fill="#E78724" d="M45.2,71c-8.5,0-11.4-4.3-11.4-4.3l1.3,3.2c0.5,1.4,5.9,5.8,10.1,5.8"/>
			<path fill="#E78724" d="M34.7,63.7c0,0,0.8,4.8,3.9,4.8c2.7,0,3.5-4.1,3.5-4.9L34.7,63.7z"/>
			<path fill="#E78724" d="M29.5,56.5c0.3-0.8,1.3-3.9,1.6-6.7c0.4-3.4,0.2-8.3,0.2-8.3s-0.8,3.3-1.6,3.8c-0.7,0.5-2.1,4.1-2.1,4.1
				s-0.7,5.3-1.1,7.1C27.5,56.6,28.3,56,29.5,56.5z"/>
			<path fill="#E78724" d="M21.9,35.5c0,0,1.8-0.6,2.3-4.5c0.5-3.9-0.6-7.2-0.6-7.2s0.1,5.3-0.5,6.4c-0.6,1-1.2,1.4-1.9,2.7
				C20.4,34.2,21.5,35,21.9,35.5z"/>
			<path fill="#87CCEE" d="M31.4,17.6"/>
			<path fill="#FDC168" d="M24,10.3l-0.4-0.2C22.6,10.1,24,10.3,24,10.3z"/>
			<path fill="#FBA919" d="M37.5,12.3c0,0-1.7-0.3-2.5-1.5c-0.8-1.3-3.2-3.8-7-3.8c-3.8,0-7.5,1-7.5,1l3.3,2.1c0.3,0,1,0,2,0
				c4.1,0.1,4.7,4.2,4.7,4.2l14.5-2"/>
			<path fill="#FFFFFF" d="M38.9,34.8c0,0-2,2-5,1.3c-3-0.6-4.8-2-5-4.3c-0.1-2.3,0.6-3.2,0.6-3.2s3.4,1,5,2.4
				C36.1,32.4,37.3,34.7,38.9,34.8z"/>
			<path fill="#C9C9C9" d="M36.5,34.1c0,0-1.7,0.8-3.6,0.1c-2.5-0.8-2.6-3.4-2.6-3.4s-1.5,4.5,2.7,5.3c3.4,0.7,5.5-1.3,5.5-1.3
				L36.5,34.1z"/>
			<path fill="#463014" d="M38.4,59.1"/>
			<path fill="#463014" d="M37.7,11.4c-0.2-3.8,3-6.9,4.1-7c0.1,0.6-0.1,3.2,1,4c0.3-2.1,1.4-4.4,5.6-5.8c-0.9,2.4-0.1,4.4,0.3,5.4
				c2.9-2.6,4.8-2.2,4.8-2.2s-2,3.5-1.2,5.7C46.5,10.9,37.7,12,37.7,11.4z"/>
			<path fill="#463014" d="M25.4,17.2C24,16.1,25,15,24.9,13.7c-0.1-0.7-0.1-1.3-0.3-1.7c-1.3-2-4.3-2.6-4.3-2.6l-1.4-0.3L19.8,8
				c0.1-0.1,4-3.8,9.9-1.9c4.2,1.3,7.2,5.9,7.3,6.1l-2.1,1c0,0-2.5-4.3-6-5.5c-2.9-0.9-5.5,0-6.7,0.5c1.2,0.5,2.8,1.4,3.7,2.9
				c0.4,0.7,0.5,1.6,0.6,2.5c0.1,1.1,0.2,2.2,1,2.9L25.4,17.2z"/>
			<path fill="#463014" d="M21.7,34c0,0,1.7-2.2,2.3-6.4c0.2-1.7-0.2-4.9-0.7-6.2c0.1,3.1-0.7,6.2-0.7,6.2S22,33.4,21.7,34z"/>
			<path fill="#463014" d="M30.9,15c0,0-0.6-2.4-2.1-3.7c-2.2-1.7-4.9-0.8-4.9-0.8l-0.4-1.2c0.1,0,3.2-1,6,1c2.8,2,3.2,3.8,3.2,4
				L30.9,15z"/>
			<path fill="#463014" d="M27.2,32.4c0,0-0.9-1.3-0.8-2.8c0.1-0.7,0.4-1.4,1-1.7c1.1-0.5,1.6,0.8,1.6,0.8S27.5,29.1,27.2,32.4z"/>
			<path fill="#463014" d="M38.4,59.1"/>
			<path fill="#463014" d="M37.2,34.4c0,0.1,0.1,0.1,0.1,0.1s-2.9,2.1-5.8,0c-1.6-1.2-1.4-4-0.9-5.3c1.2,0.3,2.3,0.8,3.2,1.4
				c-1.1-1-2.1-1.7-2.1-1.7l-1.3-0.4l-2.5-0.8c0,0.2-0.9,4.4,1.7,7.3c1.2,1.3,6.6,4.1,9.1-0.8L37.2,34.4z"/>
			<path fill="#463014" d="M37,34.7c1.6,2.4,5.7,1,5.6-1.5c0,0-2.7,1.5-5.1-1.3c-1.4-1.6-5.9-6-12-4.6C29.7,28.3,35.2,32.1,37,34.7z
				"/>
			<g>
				<path fill="#463014" d="M38.4,59.1"/>
			</g>
			<path fill="#463014" d="M24.9,41.6c0.4,0.2,1.8,1.6,1.8,3.7c0,1.1-0.1,6.4-0.6,9.6c0.8,0.5,1.3,0.6,2.1,1.1
				c0.4-3.8,0.7-9.2,0.5-11.4c-0.2-2.5-1.5-4.2-2.7-4.9c-0.4-0.2-0.8-0.4-1.2-0.7c-2.1-1.2-4.3-2.3-4.3-4.4c0-1.6,0.6-2.1,1.3-2.6
				l0.1-0.1c0.4-0.4,0.9-0.8,1.2-1.4c0.8-1.8,0.9-6.4,0-7.5c-0.5-0.6-1.7-2.5-1.3-3.8c0.1-0.5,0.4-0.9,1-1.1
				c0.5-0.3,1.3-0.4,2.2-0.4c1.8,0,3.7,0.5,4.7,0.9c3.6,1.1,8,4.4,9.2,5.4c0,0,0.1,0,0.1,0l0.8,0.6l-0.5-0.8c0-0.1-3.2-5.3-8.8-7.2
				c-1.1-0.4-3.3-1-5.4-1c-1.3,0-2.3,0.2-3.2,0.7c-1,0.5-1.7,1.4-2,2.4c-0.7,2.6,1.6,5.5,1.7,5.6c0.3,0.5,0.4,4-0.2,5.4
				c-0.1,0.2-0.3,0.4-0.6,0.6c-0.1,0.1-0.2,0.2-0.3,0.2c-0.9,0.7-2.2,1.7-2.2,4c0,3.2,3.2,4.9,5.8,6.3
				C24.2,41.2,24.6,41.4,24.9,41.6z"/>
			<g>
				<g>
					<path fill="#463014" d="M25.4,17.2C24,16.1,25,15,24.9,13.7c-0.1-0.7-0.1-1.3-0.3-1.7c-1.3-2-4.3-2.6-4.3-2.6l-1.4-0.3L19.8,8
						c0.1-0.1,4-3.8,9.9-1.9c4.2,1.3,7.2,5.9,7.3,6.1l-2.1,1c0,0-2.5-4.3-6-5.5c-2.9-0.9-5.5,0-6.7,0.5c1.2,0.5,2.8,1.4,3.7,2.9
						c0.4,0.7,0.5,1.6,0.6,2.5c0.1,1.1,0.2,2.2,1,2.9L25.4,17.2z"/>
				</g>
				<g>
					<path fill="#463014" d="M25.3,17.4L25.3,17.4c-1.1-0.9-0.9-1.8-0.8-2.6c0.1-0.4,0.2-0.8,0.1-1.2c-0.1-0.7-0.1-1.3-0.3-1.6
						c-1.2-1.9-4.1-2.5-4.2-2.5l-1.8-0.3l1.2-1.4c0,0,2.5-2.5,6.7-2.5c1.1,0,2.3,0.2,3.5,0.6c4.3,1.4,7.4,6.1,7.5,6.2l0.1,0.2
						l-2.5,1.2l-0.1-0.2c-0.3-0.5-2.6-4.3-5.9-5.4c-0.8-0.3-1.7-0.4-2.5-0.4c-1.6,0-2.9,0.4-3.5,0.7c1.1,0.5,2.5,1.4,3.4,2.8
						c0.5,0.8,0.6,1.7,0.6,2.6c0.1,1.1,0.2,2.1,1,2.8l0.3,0.2L25.3,17.4z"/>
				</g>
			</g>
			<g>
				<g>
					<path fill="#463014" d="M30.9,15c0,0-0.6-2.4-2.1-3.7c-2.2-1.7-4.9-0.8-4.9-0.8l-0.4-1.2c0.1,0,3.2-1,6,1c2.8,2,3.2,3.8,3.2,4
						L30.9,15z"/>
				</g>
				<g>
					<path fill="#463014" d="M30.7,15.3l-0.1-0.2c0,0-0.6-2.4-2-3.6c-0.8-0.7-1.9-1-3-1c-0.9,0-1.6,0.2-1.7,0.2l-0.2,0.1l-0.5-1.6
						l0.2-0.1c0.1,0,0.9-0.3,2-0.3c1.5,0,2.9,0.4,4.1,1.3c2.9,2,3.3,3.9,3.3,4.1l0,0.2L30.7,15.3z M25.6,10.1c1.2,0,2.4,0.4,3.3,1.1
						c1.3,1,1.9,2.9,2.1,3.6l1.4-0.6c-0.1-0.5-0.7-2-3.1-3.7c-1.1-0.8-2.4-1.2-3.9-1.2c-0.8,0-1.4,0.1-1.7,0.2l0.3,0.8
						C24.3,10.2,24.9,10.1,25.6,10.1z"/>
				</g>
			</g>
			<path fill="#463014" d="M38.5,67.4L38.5,67.4c-0.6,0-1.3-0.2-1.7-0.6c-0.3-0.3-1.5-1.3-2-2.6c-0.2-0.5-0.1-0.9,0.1-1.1
				c0.2-0.2,0.6-0.4,1.4-0.4l0.6,0c0.7,0,1.8,0,2.8,0h0.9c0.6,0,1,0.1,1.3,0.4c0.3,0.3,0.2,0.7,0.1,1c-0.2,0.4-0.8,1.6-1.9,2.8
				C39.7,67.2,39.2,67.4,38.5,67.4z"/>
			<path fill="#463014" d="M39.2,34.9L37,34.7c0,0,0.6,1,0.9,2.3c0.4,1.5-0.4,3.6-0.4,3.6S40.5,37.3,39.2,34.9z"/>
			<g>
				<path fill="#463014" d="M36.4,73.3c-8-0.6-10.8-8.1-10.8-9.7l2.1,0l-1,0h1c0,0.7,2.1,7.1,8.8,7.6L36.4,73.3z"/>
			</g>
			<path fill="#FFFFFF" d="M34.2,59.8c-0.1-0.7-0.1-1.4,0-2.1c-0.6-0.5-1.7-0.6-2.5-0.9c-0.7-0.4-4.1,0.4-6.5-2.6
				c-3.1-3.7-2.4-6-2.4-6c-0.8,0.9-1.6,0.5-2.8,4.7c-1.2,4.1,0.6,7,3.9,9.9c1.6,1.4,3.8,1.9,5.7,2.1c-0.6-0.6,1.1-0.7,2.3-1.2
				c-0.1-1,0.1-1.9,0.8-2.7c0.4-0.5,1-0.7,1.6-0.9c0-0.1,0.1-0.1,0.1-0.2C34.2,59.9,34.2,59.9,34.2,59.8z"/>
			<path fill="#C9C9C9" d="M31.8,63.8c-0.1-0.2-0.1-0.4-0.2-0.6c-0.1-0.2-0.3-0.9,0-0.1c-0.1-0.2-0.1-0.4-0.2-0.6
				c-5.4,0-10.1-3.7-9.2-11.5c-0.7-0.9-1.7,1.9-1.7,1.9s-2.7,7.8,4.3,10.8c2.3,1,4.4,1.7,4.8,1.4c1,0.2,1.9-0.5,2.3-1
				C31.9,64.1,31.8,63.9,31.8,63.8z"/>
			<path fill="#463014" d="M34.1,58.7c0-0.7,0.1-1.3,0.5-1.9c0,0,0-0.1,0.1-0.1c-2.1,0-4.5-0.2-6.5-1c-2.2-0.9-5-3.9-5.5-7.5
				c0,0-4.2,3.2-3,10.2c1.2,6.5,6.6,8.6,12.8,9c0,0-0.7-1.5-0.5-2.4c-3.5,0.3-7.5-1.1-9.4-4.2c-1.7-2.9-1.3-7.8-0.5-8.5
				C23.8,57.7,30.1,58.8,34.1,58.7z"/>
			<path fill="#463014" d="M45.2,67.2"/>
			<path fill="#463014" d="M34.7,54.7c-1.1,3.3-3.4,5.9-3.4,5.9s3.1-0.1,3.3-0.7c0.1-0.4,2.8-6.8,3.9-14.2
				C37.5,47.4,34.8,54.5,34.7,54.7z"/>
			<path fill="#E78724" d="M52.5,47.2c0,0,3.6,5.5,6.2,9.3c0.4,0.6-2.6,0.6-2.6,0.6L52.5,47.2z"/>
			<path fill="#E78724" d="M50.8,35.9c0,0,1.1,2.7,1.7,4.1c0.6,1.5,3.1,2.3,3.1,2.3s-1.3-1.3-1.3-4.7c0-1.4-1.8-2-1.8-2L50.8,35.9z"
				/>
			<path fill="#E78724" d="M51.9,37.4c0,0,2.2,2.6,6.3,1.2s4.5-6.7,4.5-8.2s-7.8,1.5-8.8,2.1C52.9,33.1,50.9,35.6,51.9,37.4z"/>
			<path fill="#E78724" d="M67.4,9.4c0,0-3.8-0.7-6.3,1.3c-2.5,2-3.3,3.6-3.3,3.6l4.2,3.4c0,0,2.1-1,2.7-3.7
				C65.4,11.1,65,9.9,67.4,9.4z"/>
			<path fill="#E78724" d="M53,29.8c1.6-2.3,4.3-3.3,6.4-3.5c3.6-0.3,5.4,1,5.4,1s-6,0.3-7.7,2.5c-3.2,4.2-7.9,4.5-8.6,3.6
				c0.9,0,1.8-0.4,2.8-1.3C52,31.5,52.5,30.5,53,29.8z"/>
			<path fill="#E78724" d="M63.1,38c0,0,6.6-2.3,5.4-4.6c-1.3-2.3-0.3-3.6-0.3-3.6s3.7,2.8,2.8,5.7c-0.6,1.8-1.6,3.1-6.9,5.6
				c-2.6,4.8-0.5,13.3-0.6,13.4c-0.2,0.1-3.6-1.7-3.4-9.7C60.1,42.3,60.3,39,63.1,38z"/>
			<path fill="#E78724" d="M54.4,13.5c2.8,1.4,6.6,3.4,6.6,3.4l-1.5,0.7c0.1,0.2,0.2,0.4,0.2,0.4l-1.5,0.7c0,0-3.8,2.7-6.1,4.5
				c0.8-2.4,3-6.1,3-6.1S55.8,15.4,54.4,13.5z"/>
			<path fill="#E78724" d="M45.2,71c8.5,0,11.4-4.3,11.4-4.3l-1.3,3.2c-0.5,1.4-5.9,5.8-10.1,5.8"/>
			<path fill="#E78724" d="M55.7,63.7c0,0-0.8,4.8-3.9,4.8c-2.7,0-3.5-4.1-3.5-4.9L55.7,63.7z"/>
			<path fill="#E78724" d="M60.9,56.5c-0.3-0.8-1.3-3.9-1.6-6.7c-0.4-3.4-0.2-8.3-0.2-8.3s0.8,3.3,1.6,3.8c0.7,0.5,2.1,4.1,2.1,4.1
				s0.7,5.3,1.1,7.1C62.9,56.6,62.1,56,60.9,56.5z"/>
			<path fill="#E78724" d="M68.5,35.5c0,0-1.8-0.6-2.3-4.5c-0.5-3.9,0.6-7.2,0.6-7.2s-0.1,5.3,0.5,6.4c0.6,1,1.2,1.4,1.9,2.7
				C70,34.2,68.9,35,68.5,35.5z"/>
			<path fill="#87CCEE" d="M59.1,17.6"/>
			<path fill="#FDC168" d="M66.4,10.3l0.4-0.2C67.8,10.1,66.4,10.3,66.4,10.3z"/>
			<path fill="#FBA919" d="M53,12.3c0,0,1.7-0.3,2.5-1.5c0.8-1.3,3.2-3.8,7-3.8C66.3,7,70,8,70,8l-3.3,2.1c-0.3,0-1,0-2,0
				c-4.1,0.1-4.7,4.2-4.7,4.2l-14.5-2"/>
			<path fill="#FFFFFF" d="M51.6,34.8c0,0,2,2,5,1.3c3-0.6,4.8-2,5-4.3c0.1-2.3-0.6-3.2-0.6-3.2s-3.4,1-5,2.4S53.1,34.7,51.6,34.8z"
				/>
			<path fill="#C9C9C9" d="M53.9,34.1c0,0,1.7,0.8,3.6,0.1c2.5-0.8,2.7-3.4,2.7-3.4s1.5,4.5-2.7,5.3C54,36.8,52,34.8,52,34.8
				L53.9,34.1z"/>
			<path fill="#463014" d="M52,59.1"/>
			<path fill="#463014" d="M65,17.2c1.4-1.1,0.4-2.2,0.5-3.5c0.1-0.7,0.1-1.3,0.3-1.7c1.3-2,4.3-2.6,4.3-2.6l1.4-0.3L70.6,8
				c-0.1-0.1-4-3.8-9.9-1.9c-4.2,1.3-7.2,5.9-7.3,6.1l2.1,1c0,0,2.5-4.3,6-5.5c2.9-0.9,5.5,0,6.7,0.5c-1.2,0.5-2.8,1.4-3.7,2.9
				c-0.4,0.7-0.5,1.6-0.6,2.5c-0.1,1.1-0.2,2.2-1,2.9L65,17.2z"/>
			<path fill="#463014" d="M68.7,34c0,0-1.7-2.2-2.3-6.4c-0.2-1.7,0.2-4.9,0.7-6.2c-0.1,3.1,0.7,6.2,0.7,6.2S68.4,33.4,68.7,34z"/>
			<path fill="#463014" d="M59.5,15c0,0,0.6-2.4,2.1-3.7c2.2-1.7,4.9-0.8,4.9-0.8l0.4-1.2c-0.1,0-3.2-1-6,1c-2.8,2-3.2,3.8-3.2,4
				L59.5,15z"/>
			<path fill="#463014" d="M63.3,32.4c0,0,0.9-1.3,0.7-2.8c-0.1-0.7-0.4-1.4-1-1.7c-1.1-0.5-1.6,0.8-1.6,0.8S63,29.1,63.3,32.4z"/>
			<path fill="#463014" d="M52,59.1"/>
			<path fill="#463014" d="M53.2,34.4c0,0.1-0.1,0.1-0.1,0.1s2.9,2.1,5.8,0c1.6-1.2,1.4-4,0.9-5.3c-1.2,0.3-2.3,0.8-3.2,1.4
				c1.1-1,2.1-1.7,2.1-1.7l1.3-0.4l2.5-0.8c0,0.2,0.9,4.4-1.7,7.3c-1.2,1.3-6.6,4.1-9.1-0.8L53.2,34.4z"/>
			<path fill="#463014" d="M53.5,34.7c-1.6,2.4-5.7,1-5.6-1.5c0,0,2.7,1.5,5.1-1.3c1.4-1.6,5.9-6,12-4.6
				C60.7,28.3,55.2,32.1,53.5,34.7z"/>
			<g>
				<path fill="#463014" d="M52,59.1"/>
			</g>
			<path fill="#463014" d="M65.5,41.6c-0.4,0.2-1.8,1.6-1.8,3.7c0,1.1,0.1,6.4,0.6,9.6c-0.8,0.5-1.3,0.6-2.1,1.1
				c-0.4-3.8-0.7-9.2-0.5-11.4c0.2-2.5,1.5-4.2,2.7-4.9c0.4-0.2,0.8-0.4,1.2-0.7c2.1-1.2,4.3-2.3,4.3-4.4c0-1.6-0.6-2.1-1.3-2.6
				l-0.1-0.1c-0.4-0.4-0.9-0.8-1.2-1.4c-0.8-1.8-0.9-6.4,0-7.5c0.5-0.6,1.7-2.5,1.3-3.8c-0.1-0.5-0.5-0.9-1-1.1
				c-0.5-0.3-1.3-0.4-2.2-0.4c-1.8,0-3.7,0.5-4.7,0.9c-3.6,1.1-8,4.4-9.2,5.4c0,0-0.1,0-0.1,0l-0.8,0.6l0.5-0.8
				c0-0.1,3.2-5.3,8.8-7.2c1.1-0.4,3.3-1,5.4-1c1.3,0,2.3,0.2,3.2,0.7c1,0.5,1.7,1.4,2,2.4c0.7,2.6-1.6,5.5-1.7,5.6
				c-0.3,0.5-0.4,4,0.2,5.4c0.1,0.2,0.3,0.4,0.6,0.6c0.1,0.1,0.2,0.2,0.3,0.2c0.9,0.7,2.2,1.7,2.2,4c0,3.2-3.2,4.9-5.8,6.3
				C66.3,41.2,65.9,41.4,65.5,41.6z"/>
			<path fill="#463014" d="M61.7,16.8c-0.5-0.9-1.8-2.5-4.8-4c-3.4-1.6-7.3-2.5-11.6-2.5v0c0,0,0,0,0,0c0,0,0,0,0,0v0
				c-4.3,0-8.2,0.8-11.6,2.5c-3,1.5-4.3,3.1-4.8,4l-0.2,0.3l2.6,0.6l0.1-0.1l0-0.1c0-0.2,0.4-1.1,3.3-2.5c3.1-1.5,6.7-2.3,10.7-2.3
				c4,0,7.6,0.8,10.7,2.3c2.9,1.4,3.2,2.3,3.3,2.5l0,0.1l0.1,0.1l2.6-0.6L61.7,16.8z"/>
			<g>
				<g>
					<path fill="#463014" d="M65,17.2c1.4-1.1,0.4-2.2,0.5-3.5c0.1-0.7,0.1-1.3,0.3-1.7c1.3-2,4.3-2.6,4.3-2.6l1.4-0.3L70.6,8
						c-0.1-0.1-4-3.8-9.9-1.9c-4.2,1.3-7.2,5.9-7.3,6.1l2.1,1c0,0,2.5-4.3,6-5.5c2.9-0.9,5.5,0,6.7,0.5c-1.2,0.5-2.8,1.4-3.7,2.9
						c-0.4,0.7-0.5,1.6-0.6,2.5c-0.1,1.1-0.2,2.2-1,2.9L65,17.2z"/>
				</g>
				<g>
					<path fill="#463014" d="M62.4,16.6l0.3-0.2c0.8-0.6,0.9-1.7,1-2.8c0.1-0.9,0.2-1.8,0.6-2.6c0.9-1.4,2.3-2.2,3.4-2.8
						c-0.7-0.3-2-0.7-3.5-0.7c-0.9,0-1.7,0.1-2.5,0.4c-3.3,1.1-5.6,4.9-5.9,5.4l-0.1,0.2l-2.5-1.2l0.1-0.2c0,0,3.1-4.8,7.5-6.2
						c1.2-0.4,2.3-0.6,3.5-0.6c4.2,0,6.6,2.5,6.7,2.5L72,9.2l-1.8,0.3c0,0-3,0.6-4.2,2.5c-0.2,0.3-0.3,0.9-0.3,1.6
						c0,0.4,0.1,0.8,0.1,1.2c0.2,0.8,0.4,1.7-0.7,2.5l-0.1,0.1L62.4,16.6z"/>
				</g>
			</g>
			<g>
				<g>
					<path fill="#463014" d="M59.5,15c0,0,0.6-2.4,2.1-3.7c2.2-1.7,4.9-0.8,4.9-0.8l0.4-1.2c-0.1,0-3.2-1-6,1c-2.8,2-3.2,3.8-3.2,4
						L59.5,15z"/>
				</g>
				<g>
					<path fill="#463014" d="M57.5,14.4l0-0.2c0-0.2,0.4-2.1,3.3-4.1c1.2-0.8,2.6-1.3,4.1-1.3c1.1,0,2,0.3,2,0.3l0.2,0.1l-0.5,1.6
						l-0.2-0.1c-0.1,0-0.7-0.2-1.7-0.2c-1.2,0-2.2,0.3-3,1c-1.5,1.2-2,3.5-2,3.6l-0.1,0.2L57.5,14.4z M66.4,10.3l0.3-0.8
						c-0.3-0.1-0.9-0.2-1.7-0.2c-1.4,0-2.8,0.4-3.9,1.2c-2.4,1.7-2.9,3.2-3.1,3.7l1.4,0.6c0.2-0.7,0.8-2.5,2.1-3.6
						c0.9-0.7,2-1.1,3.3-1.1C65.5,10.1,66.1,10.2,66.4,10.3z"/>
				</g>
			</g>
			<path fill="#463014" d="M50.3,66.7c-1.1-1.2-1.7-2.4-1.9-2.8c-0.1-0.2-0.2-0.6,0.1-1c0.2-0.3,0.7-0.4,1.3-0.4h0.9
				c1,0,2.1,0,2.7,0l0.6,0c0.8,0,1.2,0.2,1.4,0.4c0.3,0.3,0.3,0.7,0.1,1.1c-0.5,1.3-1.6,2.3-2,2.6c-0.4,0.4-1.1,0.6-1.7,0.6l0,0
				C51.3,67.4,50.7,67.2,50.3,66.7z"/>
			<path fill="#463014" d="M51.2,34.9l2.2-0.1c0,0-0.6,1-0.9,2.3c-0.4,1.5,0.4,3.6,0.4,3.6S49.9,37.3,51.2,34.9z"/>
			<path fill="#E78724" d="M45.2,26.9c-1.4,0-3.3,0-4.7-1c0,0,1.8,3.2,4.7,3.2l0-0.4l0,0.4c2.9,0,4.7-3.2,4.7-3.2
				C48.5,26.9,46.6,26.9,45.2,26.9z"/>
			<path fill="#463014" d="M49.1,26.9c-1.4,0.9-2.7,1.2-3.9,1.2c-1.2,0-2.5-0.3-3.9-1.2c0,0,2.1,2.5,3.9,2.6v0c0,0,0,0,0,0
				c0,0,0,0,0,0v0C47.1,29.4,49.1,26.9,49.1,26.9z"/>
			<g>
				<path fill="#463014" d="M54,73.3l-0.2-2.1c6.7-0.5,8.8-7,8.8-7.6h2.1C64.8,65.2,62,72.7,54,73.3z"/>
			</g>
			<path fill="#FFFFFF" d="M56.3,59.8c0.1-0.7,0.1-1.4,0-2.1c0.6-0.5,1.7-0.6,2.5-0.9c0.7-0.4,4.1,0.4,6.5-2.6c3.1-3.7,2.4-6,2.4-6
				c0.8,0.9,1.6,0.5,2.8,4.7c1.2,4.1-0.6,7-3.9,9.9c-1.6,1.4-3.8,1.9-5.7,2.1c0.6-0.6-1.1-0.7-2.3-1.2c0.1-1-0.1-1.9-0.8-2.7
				c-0.4-0.5-1-0.7-1.6-0.9c0-0.1-0.1-0.1-0.1-0.2C56.2,59.9,56.3,59.9,56.3,59.8z"/>
			<path fill="#C9C9C9" d="M58.7,63.8c0.1-0.2,0.1-0.4,0.2-0.6c0.1-0.2,0.3-0.9,0-0.1c0.1-0.2,0.1-0.4,0.2-0.6
				c5.4,0,10.1-3.7,9.2-11.5c0.7-0.9,1.7,1.9,1.7,1.9s2.7,7.8-4.3,10.8c-2.3,1-4.4,1.7-4.8,1.4c-1,0.2-1.9-0.5-2.3-1
				C58.6,64.1,58.6,63.9,58.7,63.8z"/>
			<path fill="#463014" d="M56.4,58.7c0-0.7-0.1-1.3-0.5-1.9c0,0,0-0.1-0.1-0.1c2.1,0,4.5-0.2,6.5-1c2.2-0.9,5-3.9,5.5-7.5
				c0,0,4.2,3.2,3,10.2c-1.2,6.5-6.6,8.6-12.8,9c0,0,0.7-1.5,0.5-2.4c3.5,0.3,7.5-1.1,9.4-4.2c1.7-2.9,1.3-7.8,0.5-8.5
				C66.6,57.7,60.3,58.8,56.4,58.7z"/>
			<g>
				<path fill="#463014" d="M45.2,67.2"/>
				<path fill="#463014" d="M58.9,60.3c-0.7-0.8-2.1-1.8-5.3-1.8c0,0-6,0-8.4,0l0,0c0,0,0,0,0,0c0,0,0,0,0,0l0,0c-2.4,0-8.4,0-8.4,0
					c-3.1,0-4.5,1-5.3,1.8c-1.1,1.2-1.3,2.8-0.5,4.8c2,5.4,4.8,10.9,14.2,10.9v0c0,0,0,0,0,0c0,0,0,0,0,0v0
					c9.4,0,12.2-5.5,14.2-10.9C60.1,63.1,60,61.5,58.9,60.3z M57.4,64.8c-0.9,2.7-3.5,9.3-12.2,9.3c-8.7,0-11.3-6.6-12.2-9.3
					c-0.5-1.5-0.5-2.6,0.1-3.3c0.4-0.5,1.4-1,3.5-1l2.3,0c1.7,0,3.8,0,6.3,0c2.5,0,4.6,0,6.3,0l2.3,0c2.2,0,3.1,0.6,3.5,1
					C57.9,62.1,57.9,63.3,57.4,64.8z"/>
			</g>
			<path fill="#463014" d="M55.7,54.7c1.1,3.3,3.4,5.9,3.4,5.9S56,60.5,55.8,60c-0.1-0.4-2.8-6.8-3.9-14.2
				C52.9,47.4,55.6,54.5,55.7,54.7z"/>
		</g>
		<g>
			<path fill="#463014" d="M20.2,81.1c-0.4-0.3-0.9-0.5-1.4-0.7c-0.5-0.2-1.1-0.3-1.7-0.4c-0.6-0.1-1.2-0.2-1.9-0.2
				c-1.3,0-2.5,0.2-3.6,0.6c-1.1,0.4-2,0.9-2.7,1.6c-0.8,0.7-1.3,1.5-1.8,2.5c-0.4,1-0.6,2-0.6,3.2c0,1.1,0.2,2.2,0.6,3.1
				c0.4,1,1,1.8,1.8,2.5c0.7,0.7,1.6,1.3,2.7,1.7c1,0.4,2.1,0.6,3.3,0.6c0.7,0,1.3,0,1.8-0.1c0.6-0.1,1.1-0.2,1.6-0.3
				c0.5-0.1,1-0.3,1.5-0.5c0.5-0.2,0.9-0.5,1.3-0.7c0.1-0.1,0.1-0.1,0.1-0.2v-6.3c0-0.2-0.1-0.3-0.3-0.3h-5.6
				c-0.2,0-0.3,0.1-0.3,0.3V89v0.4V90c0,0.2,0.1,0.3,0.3,0.3h2V92c-0.3,0.1-0.6,0.2-0.9,0.2c-0.4,0.1-0.8,0.1-1.3,0.1
				c-0.6,0-1.2-0.1-1.7-0.3c-0.5-0.2-1-0.5-1.4-0.9c-0.4-0.4-0.7-0.9-0.9-1.5c-0.2-0.6-0.3-1.3-0.3-2c0-0.7,0.1-1.3,0.3-1.9
				c0.2-0.5,0.5-1,0.8-1.4c0.4-0.4,0.8-0.7,1.3-0.9c0.5-0.2,1.1-0.3,1.8-0.3c0.4,0,0.7,0,1,0c0.3,0,0.6,0.1,0.8,0.2
				c0.3,0.1,0.5,0.2,0.7,0.3c0.3,0.1,1.4,0.8,1.7,0.9c0.2,0.1,0.3,0.1,0.4-0.1l1.6-2.3c0.1-0.1,0.1-0.3,0-0.4
				C21,81.6,20.6,81.3,20.2,81.1z"/>
			<path fill="#463014" d="M34.2,89.8c-0.2-0.3-0.4-0.5-0.6-0.7c-0.1-0.1-0.2-0.1-0.2-0.2c0.3-0.2,0.6-0.3,0.9-0.5
				c0.4-0.3,0.8-0.7,1.1-1c0.3-0.4,0.5-0.8,0.7-1.3c0.1-0.5,0.2-0.9,0.2-1.5c0-0.7-0.1-1.3-0.4-1.9c-0.3-0.6-0.7-1.1-1.2-1.5
				c-0.5-0.4-1.2-0.7-2.1-1c-0.8-0.2-1.8-0.3-3-0.3h-5.2c-0.2,0-0.3,0.1-0.3,0.3v14.9c0,0.2,0.1,0.3,0.3,0.3h3.7
				c0.2,0,0.3-0.1,0.3-0.3v-5.2H29c0.3,0,0.5,0.1,0.5,0.1c0.1,0.1,0.2,0.2,0.3,0.3l2.6,4.3c0.3,0.5,0.8,0.8,1.6,0.8h3.3c0,0,0,0,0,0
				c0.2,0,0.3-0.1,0.3-0.3c0-0.1,0-0.2-0.1-0.2L34.2,89.8z M31.9,85.8c-0.1,0.2-0.2,0.5-0.4,0.6c-0.2,0.2-0.5,0.3-0.8,0.4
				C30.4,86.9,30,87,29.5,87h-1.2v-3.9h1.2c0.9,0,1.5,0.2,1.9,0.5c0.4,0.3,0.6,0.7,0.6,1.3C32,85.2,32,85.5,31.9,85.8z"/>
			<path fill="#463014" d="M52.7,80H49c-0.2,0-0.3,0.1-0.3,0.3v8.8c0,0.5-0.1,0.9-0.2,1.3c-0.1,0.4-0.3,0.7-0.6,0.9
				c-0.2,0.3-0.5,0.5-0.9,0.6c-0.7,0.3-1.7,0.3-2.4,0c-0.3-0.1-0.6-0.3-0.9-0.6c-0.2-0.3-0.4-0.6-0.6-1C43.1,90,43,89.6,43,89.1
				v-8.8c0-0.2-0.1-0.3-0.3-0.3h-3.7c-0.2,0-0.3,0.1-0.3,0.3v8.8c0,0.9,0.2,1.8,0.5,2.6c0.3,0.8,0.8,1.5,1.4,2.1
				c0.6,0.6,1.4,1,2.2,1.3c0.9,0.3,1.9,0.5,3,0.5c1.1,0,2.1-0.2,2.9-0.5c0.9-0.3,1.6-0.8,2.2-1.3c0.6-0.6,1.1-1.3,1.4-2.1
				c0.3-0.8,0.5-1.7,0.5-2.6v-8.8C53,80.1,52.9,80,52.7,80z"/>
			<path fill="#463014" d="M70.1,80h-3.2c-0.2,0-0.3,0.1-0.3,0.3v7.9c0,0.2,0,0.5,0,0.8l-7-8.3c-0.1-0.1-0.2-0.2-0.3-0.3
				c-0.1-0.1-0.2-0.2-0.3-0.2c-0.1,0-0.2-0.1-0.4-0.1c-0.1,0-0.3,0-0.4,0h-1.9c-0.2,0-0.3,0.1-0.3,0.3v14.9c0,0.2,0.1,0.3,0.3,0.3
				h3.2c0.2,0,0.3-0.1,0.3-0.3v-8c0-0.2,0-0.4,0-0.6l6.9,8.2c0.2,0.3,0.4,0.4,0.7,0.5c0.2,0.1,0.5,0.1,0.8,0.1h1.9
				c0.2,0,0.3-0.1,0.3-0.3V80.3C70.3,80.1,70.2,80,70.1,80z"/>
			<path fill="#463014" d="M85.3,80H72.7c-0.2,0-0.3,0.1-0.3,0.3V83c0,0.2,0.1,0.3,0.3,0.3h4.2v11.9c0,0.2,0.1,0.3,0.3,0.3h3.7
				c0.2,0,0.3-0.1,0.3-0.3V83.3h4.2c0.2,0,0.3-0.1,0.3-0.3v-2.7C85.6,80.1,85.5,80,85.3,80z"/>
		</g>
	</g>
</g>
<g>
	<g id="layer1_3_" transform="translate(130.53125,-317.84375)">
		
			<linearGradient id="path19_2_" gradientUnits="userSpaceOnUse" x1="-103.1741" y1="0.2954" x2="-103.1741" y2="53.2409" gradientTransform="matrix(1 0 0 1 103.7117 428.8911)">
			<stop  offset="0.1497" style="stop-color:#2A4F84"/>
			<stop  offset="0.3884" style="stop-color:#294E82"/>
			<stop  offset="1" style="stop-color:#172E4E"/>
		</linearGradient>
		<path id="path19_1_" fill="url(#path19_2_)" d="M53.7,471.9c0,5.6-4.6,10.2-10.2,10.2h-85.8c-5.6,0-10.2-4.6-10.2-10.2v-32.5
			c0-5.6,4.6-10.2,10.2-10.2h85.8c5.6,0,10.2,4.6,10.2,10.2V471.9z"/>
		<path id="path21_1_" fill="#F6F6F6" d="M35.7,455c4.5,1.6,6.7,4.3,6.7,8.1c0,2.5-0.9,4.5-2.8,6c-1.9,1.5-4.5,2.4-7.9,2.4
			s-6.6-1-9.6-2.6c0-0.9,0.3-1.8,0.7-2.9c0.4-1,0.9-1.9,1.5-2.5c2.7,1.4,5,2.1,7,2.1c0.9,0,1.7-0.2,2.2-0.5c0.5-0.3,0.8-0.7,0.8-1.3
			c0-1-0.8-1.8-2.3-2.3l-2.8-1.1c-4.2-1.5-6.3-4-6.3-7.5c0-2.5,0.9-4.5,2.7-6c1.8-1.5,4.2-2.8,7.2-2.8c1.5,0,3.1,0.2,4.9,0.6
			c1.8,0.4,3.3,1.4,4.4,2c0.1,0.9-0.1,2-0.6,3.1c-0.4,1.1-1,1.9-1.6,2.4c-2.8-1.3-5.2-1.9-7.1-1.9c-0.7,0-1.2,0.2-1.5,0.5
			c-0.4,0.3-0.5,0.7-0.5,1.2c0,0.8,0.6,1.4,1.9,1.9L35.7,455L35.7,455z"/>
		<path id="path23_1_" fill="#F6F6F6" d="M13.3,455c4.5,1.6,6.7,4.3,6.7,8.1c0,2.5-0.9,4.5-2.8,6c-1.9,1.5-4.5,2.4-7.9,2.4
			c-3.4,0-6.6-1-9.6-2.6c0-0.9,0.3-1.8,0.7-2.9c0.4-1,0.9-1.9,1.5-2.5c2.7,1.4,5,2.1,7,2.1c0.9,0,1.7-0.2,2.2-0.5
			c0.5-0.3,0.8-0.7,0.8-1.3c0-1-0.8-1.8-2.3-2.3l-2.8-1.1c-4.2-1.5-6.3-4-6.3-7.5c0-2.5,0.9-4.5,2.7-6c1.8-1.5,4.2-2.8,7.2-2.8
			c1.5,0,3.1,0.2,4.9,0.6c1.8,0.4,3.3,1.4,4.4,2c0.1,0.9-0.1,2-0.6,3.1c-0.4,1.1-1,1.9-1.6,2.4c-2.8-1.3-5.2-1.9-7.1-1.9
			c-0.7,0-1.2,0.2-1.5,0.5c-0.4,0.3-0.5,0.7-0.5,1.2c0,0.8,0.6,1.4,1.9,1.9L13.3,455L13.3,455z"/>
		<path id="path25_1_" fill="#F6F6F6" d="M-3,455.3c0-1.5-0.2-3-0.7-4.3c-0.5-1.3-1.2-2.4-2.1-3.4c-0.9-0.9-2-1.7-3.3-2.2
			c-1.3-0.5-2.8-1.3-4.4-1.3c-1.9,0-3.6,0.9-5,1.5c-1.4,0.7-2.6,1.6-3.5,2.8c-0.9,1.2-1.6,2.5-2.1,4.1c-0.5,1.6-0.7,3.3-0.7,5.2
			c0,1.9,0.2,3.7,0.6,5.4c0.4,1.6,1,3.1,1.9,4.3c0.9,1.2,2.1,2.1,3.5,2.8c1.4,0.7,3.2,1.2,5.3,1.2c3.9,0,7.2-1.1,9.9-3
			c-0.3-1.9-1-3.5-2.1-4.6c-1.4,0.5-2.6,0.9-3.7,1.1c-1.1,0.2-2,0.3-2.8,0.3c-1.6,0-2.8-0.4-3.5-1.2c-0.7-0.8-1.1-1.8-1.2-3.3h13.2
			C-3.3,459.3-3,457.4-3,455.3z M-16.9,455.7c0.1-1.7,0.4-3.5,0.9-4.3c0.5-0.8,1.3-1.1,2.4-1.1c1.1,0,1.9,0.4,2.5,1.2
			c0.6,0.8,0.8,2.4,0.8,3.7l0,0.6H-16.9L-16.9,455.7L-16.9,455.7z"/>
		<path id="path27_1_" fill="#F6F6F6" stroke="#404040" stroke-width="5.1509" stroke-miterlimit="10" d="M56.3,459
			c-1.4,1.2-2.3,3-2.3,5.4v8.7c0,2.9-0.9,5.1-2.9,6.6c-2,1.5-4.4,2.3-7.1,2.3l-1.6,0v-4.4c1.4-0.4,2-0.9,2.5-1.4
			c1-0.9,1.8-2.4,1.8-4.5v-7.1c0-2.4,0.2-4.3,1.1-5.6c0.9-1.4,2.6-2.5,5.1-3.6c-2.8-1.3-4.7-3-5.6-5c-0.6-1.2-0.6-2.9-0.6-5v-6.5
			c0-2.1-0.7-3.6-1.6-4.5c-0.6-0.6-1.2-1-2.8-1.3v-4.1c1.9,0,2.9,0,4,0c1.7,0,3.1,0.9,4.4,1.9c1.4,1.1,2.3,2.5,2.9,4.3
			c0.3,1,0.4,2,0.4,3v7.5c0,2.6,0.8,4.6,2.1,5.9c0.8,0.7,1.8,1.4,3.6,2v3.4C58.2,457.6,57.2,458.2,56.3,459L56.3,459z"/>
		<path id="path29_1_" fill="#F6F6F6" stroke="#404040" stroke-width="5.1509" stroke-miterlimit="10" d="M-44.3,429.2L-44.3,429.2
			c-0.5,0-1,0-1.4,0c-1.7,0-3.1,0.9-4.4,1.9c-1.4,1.1-2.5,2.4-2.9,4.3c-0.2,1.1-0.2,2-0.2,3v7.5c0,2.6-1,4.6-2.3,5.9
			c-0.8,0.7-2.4,1.4-4.2,2v3.4c1.6,0.4,3.2,1.1,4,1.8c1.4,1.2,2.5,3,2.5,5.4v8.7c0,2.9,0.7,5.1,2.7,6.6c2,1.5,4.4,2.3,7.1,2.3l1.8,0
			v-4.4c-1.4-0.4-2.2-0.9-2.7-1.4c-1-0.9-1.6-2.4-1.6-4.5v-7.1c0-2.4-0.4-4.3-1.3-5.6c-0.9-1.4-2.6-2.5-5.1-3.6c2.8-1.3,4.7-3,5.6-5
			c0.6-1.2,0.8-2.9,0.8-5v-6.5c0-2.1,0.5-3.6,1.4-4.5c0.5-0.5,1.3-0.8,2.5-1.2l1.8,0c0-1.6,0-2.6,0-4.3L-44.3,429.2L-44.3,429.2
			L-44.3,429.2L-44.3,429.2z"/>
		<path id="path31_1_" fill="#F6F6F6" d="M-27.5,464.7h-1.4c-1.5,0-2-0.8-2-2.3v-28.8c0-1.7-0.5-3-1.1-3.7c-0.6-0.7-1.8-0.7-3.3-0.7
			h-3.1l-0.4,0v0l0,4.3v30.3c0,2.4,0.5,4.2,1.5,5.3c1,1.1,2.6,1.7,4.9,1.7c1.6,0,3.4-0.2,5.4-0.5c0.1-0.3,0.2-1.1,0.2-2.2
			C-26.9,466.9-27.1,465.8-27.5,464.7L-27.5,464.7z"/>
	</g>
</g>
<g>
	<g id="_x23_cb3837ff_1_">
		<path fill="#CB3837" d="M357.1,37.6h110.1v36.8c-18.3,0-36.7,0-55,0c0,2.1,0,4.1,0,6.2h-24.4c0-2.1,0-4.1,0-6.2
			c-10.2,0-20.4,0-30.6,0V37.6 M363.3,43.8c0,8.1,0,16.3,0,24.4c4,0,8.1,0,12.1,0c0-6.1,0-12.2,0-18.3c2.1,0,4.1,0,6.2,0
			c0,6.1,0,12.2,0,18.3c2.1,0,4.1,0,6.2,0c0-8.1,0-16.3,0-24.4C379.6,43.8,371.4,43.8,363.3,43.8 M393.9,43.8c0,10.2,0,20.4,0,30.6
			c4.1,0,8.2,0,12.3,0c0-2.1,0-4.1,0-6.2c4,0,8.1,0,12.1,0c0-8.1,0-16.3,0-24.4C410.2,43.8,402,43.8,393.9,43.8 M424.5,43.8
			c0,8.1,0,16.3,0,24.4c4,0,8.1,0,12.1,0c0-6.1,0-12.2,0-18.3c2.1,0,4.1,0,6.2,0c0,6.1,0,12.2,0,18.3c2.1,0,4.1,0,6.2,0
			c0-6.1,0-12.2,0-18.3c2.1,0,4.1,0,6.2,0c0,6.1,0,12.2,0,18.3c2.1,0,4.1,0,6.2,0c0-8.1,0-16.3,0-24.4
			C449,43.8,436.8,43.8,424.5,43.8z"/>
		<path fill="#CB3837" d="M406.2,50c2,0,4,0,5.9,0c0,4,0,8.1,0,12.1c-2,0-4,0-5.9,0C406.2,58.1,406.2,54,406.2,50z"/>
	</g>
	<g id="_x23_ffffffff_1_">
		<path fill="#FFFFFF" d="M363.3,43.8c8.1,0,16.3,0,24.4,0c0,8.1,0,16.3,0,24.4c-2.1,0-4.1,0-6.2,0c0-6.1,0-12.2,0-18.3
			c-2.1,0-4.1,0-6.2,0c0,6.1,0,12.2,0,18.3c-4,0-8.1,0-12.1,0C363.3,60.1,363.3,52,363.3,43.8z"/>
		<path fill="#FFFFFF" d="M393.9,43.8c8.1,0,16.3,0,24.4,0c0,8.1,0,16.3,0,24.4c-4,0-8.1,0-12.1,0c0,2.1,0,4.1,0,6.2
			c-4.1,0-8.2,0-12.3,0C393.9,64.2,393.9,54,393.9,43.8 M406.2,50c0,4,0,8.1,0,12.1c2,0,4,0,5.9,0c0-4,0-8.1,0-12.1
			C410.2,50,408.2,50,406.2,50z"/>
		<path fill="#FFFFFF" d="M424.5,43.8c12.3,0,24.5,0,36.8,0c0,8.1,0,16.3,0,24.4c-2.1,0-4.1,0-6.2,0c0-6.1,0-12.2,0-18.3
			c-2.1,0-4.1,0-6.2,0c0,6.1,0,12.2,0,18.3c-2.1,0-4.1,0-6.2,0c0-6.1,0-12.2,0-18.3c-2.1,0-4.1,0-6.2,0c0,6.1,0,12.2,0,18.3
			c-4,0-8.1,0-12.1,0C424.5,60.1,424.5,52,424.5,43.8z"/>
	</g>
</g>
<g>
	<path fill="#CD6799" d="M644,46.3c-3.6,0-6.7,0.9-9.3,2.2c-1-1.9-1.9-3.6-2.1-4.8c-0.2-1.4-0.4-2.3-0.2-4c0.2-1.7,1.2-4.2,1.2-4.4
		c0-0.2-0.2-1.1-2.3-1.1c-2.1,0-3.8,0.4-4,0.9s-0.6,1.8-0.9,3.1c-0.4,1.9-4.1,8.6-6.3,12.1c-0.7-1.4-1.3-2.6-1.4-3.5
		c-0.2-1.4-0.4-2.3-0.2-4c0.2-1.7,1.2-4.2,1.2-4.4c0-0.2-0.2-1.1-2.3-1.1c-2.1,0-3.8,0.4-4,0.9c-0.2,0.5-0.4,1.8-0.9,3.1
		s-5.4,12.4-6.7,15.3c-0.7,1.5-1.3,2.7-1.7,3.5l0,0c0,0,0,0.1-0.1,0.1c-0.4,0.7-0.6,1.1-0.6,1.1s0,0,0,0c-0.3,0.5-0.6,1-0.7,1
		c-0.1,0-0.3-1.3,0-3.2c0.7-3.9,2.5-9.9,2.5-10.1c0-0.1,0.3-1.2-1.2-1.7c-1.5-0.5-2,0.4-2.1,0.4s-0.2,0.3-0.2,0.3s1.6-6.8-3.1-6.8
		c-3,0-7,3.2-9.1,6.2c-1.3,0.7-4,2.2-6.9,3.8c-1.1,0.6-2.2,1.2-3.3,1.8c-0.1-0.1-0.1-0.2-0.2-0.2c-5.7-6.1-16.3-10.5-15.9-18.7
		c0.2-3,1.2-10.9,20.4-20.4c15.8-7.8,28.3-5.6,30.5-0.8c3.1,6.8-6.7,19.5-23,21.3c-6.2,0.7-9.5-1.7-10.3-2.6c-0.9-0.9-1-1-1.3-0.8
		c-0.5,0.3-0.2,1.1,0,1.6c0.5,1.3,2.5,3.5,5.9,4.6c3,1,10.3,1.5,19.1-1.9c9.9-3.8,17.6-14.4,15.3-23.3c-2.3-9-17.3-12-31.4-7
		c-8.4,3-17.6,7.7-24.2,13.9c-7.8,7.3-9.1,13.7-8.5,16.3c1.8,9.4,14.8,15.6,20.1,20.1c-0.3,0.1-0.5,0.3-0.7,0.4
		c-2.6,1.3-12.5,6.5-15,12c-2.8,6.2,0.4,10.7,2.6,11.3c6.7,1.9,13.6-1.5,17.3-7s3.2-12.7,1.5-15.9c0,0,0-0.1-0.1-0.1
		c0.7-0.4,1.4-0.8,2-1.2c1.3-0.8,2.6-1.5,3.8-2.1c-0.6,1.7-1.1,3.8-1.3,6.8c-0.3,3.5,1.2,8.1,3.1,9.9c0.8,0.8,1.8,0.8,2.5,0.8
		c2.2,0,3.2-1.8,4.3-4c1.3-2.7,2.6-5.8,2.6-5.8s-1.5,8.4,2.6,8.4c1.5,0,3-1.9,3.7-2.9c0,0,0,0,0,0s0-0.1,0.1-0.2
		c0.1-0.2,0.2-0.4,0.2-0.4s0,0,0,0c0.6-1,1.9-3.4,4-7.4c2.6-5.1,5.1-11.5,5.1-11.5s0.2,1.6,1,4.1c0.4,1.5,1.4,3.2,2.1,4.8
		c-0.6,0.8-1,1.3-1,1.3s0,0,0,0c-0.5,0.6-1,1.3-1.6,2c-2,2.4-4.5,5.2-4.8,6c-0.4,1-0.3,1.6,0.4,2.2c0.5,0.4,1.5,0.5,2.5,0.4
		c1.8-0.1,3.1-0.6,3.8-0.9c1-0.4,2.2-0.9,3.2-1.7c2-1.5,3.2-3.6,3.1-6.4c-0.1-1.5-0.6-3.1-1.2-4.5c0.2-0.3,0.4-0.5,0.5-0.8
		c3.2-4.6,5.6-9.7,5.6-9.7s0.2,1.6,1,4.1c0.4,1.3,1.1,2.7,1.8,4.1c-3,2.4-4.8,5.2-5.5,7.1c-1.2,3.4-0.3,4.9,1.5,5.3
		c0.8,0.2,1.9-0.2,2.7-0.6c1-0.3,2.3-0.9,3.5-1.8c2-1.5,3.9-3.5,3.8-6.3c-0.1-1.3-0.4-2.5-0.9-3.7c2.5-1,5.8-1.6,10-1.1
		c8.9,1,10.7,6.6,10.3,9s-2.2,3.6-2.8,4c-0.6,0.4-0.8,0.5-0.8,0.8c0.1,0.4,0.4,0.4,0.9,0.3c0.7-0.1,4.7-1.9,4.9-6.2
		C658.5,52.2,653.2,46.2,644,46.3z M575.2,69.5c-3,3.2-7.1,4.4-8.9,3.4c-1.9-1.1-1.2-5.9,2.5-9.3c2.2-2.1,5.1-4,7-5.2
		c0.4-0.3,1.1-0.6,1.8-1.1c0.1-0.1,0.2-0.1,0.2-0.1l0,0c0.1-0.1,0.3-0.2,0.4-0.3C579.5,61.8,578.3,66.1,575.2,69.5z M596.7,54.8
		c-1,2.5-3.2,8.9-4.5,8.6c-1.1-0.3-1.8-5.2-0.2-10c0.8-2.4,2.5-5.3,3.5-6.4c1.6-1.8,3.4-2.4,3.8-1.7
		C599.9,46.3,597.3,53.2,596.7,54.8z M614.5,63.3c-0.4,0.2-0.8,0.4-1,0.3c-0.1-0.1,0.2-0.4,0.2-0.4s2.2-2.4,3.1-3.5
		c0.5-0.6,1.1-1.4,1.7-2.2c0,0.1,0,0.2,0,0.2C618.5,60.6,615.7,62.5,614.5,63.3z M628.2,60.2c-0.3-0.2-0.3-1,0.8-3.3
		c0.4-0.9,1.4-2.5,3.1-3.9c0.2,0.6,0.3,1.2,0.3,1.7C632.4,58.3,629.8,59.6,628.2,60.2z"/>
	<g>
	</g>
	<g>
	</g>
	<g>
	</g>
	<g>
	</g>
	<g>
	</g>
	<g>
	</g>
</g>
<g>
	<g>
		<g id="leaf_1_">
			<path fill="#00ACEE" d="M622.9,107.1c-9,0-15.7,9.5-12.6,16.3C623,123.4,617.8,111.7,622.9,107.1z"/>
		</g>
		<path id="body_1_" fill="#FFCC2F" d="M625.8,132.7c0-3-14.4-4.5-22.4-5c-8-0.5-37.2,5.1-33.8,12.4c3.5,7.3,12.2,15.1,22.1,15.1
			c5.1,0,11.1-3.6,11.4-10.2C609,143,625.8,142.9,625.8,132.7z"/>
		<path id="wing_tip_1_" fill="#2BAF2B" d="M618.4,134.7c0.9,0.9-2,3.5-4.6,2.3c1.2,2.6-3.9,4.8-6.4,2.9c0.3,2.1-4.8,3.3-6.4,1
			c0.4,1.1,0.8,2,1.1,2.7c0,0,0,0,0,0c0.8,1.1,2,2,6.9,2c7.6,0,20-5.8,20-10.1c0-3.5-1.3-3.9-3.6-3.6c-2.3,0.3-14.2,1.5-16.7,1
			C610.1,133.1,617,134.5,618.4,134.7z"/>
		<path id="head_1_" fill="#EF5734" d="M591.6,105.2c-14.6,0-29.3,14.5-22.3,34.5c4.7,2.8,11.1,1.7,12.5,0.2c2.1,0.7,4,1,5.8,1
			c8.9,0,16.4-9.4,16.4-21.2C604,107.6,596,105.2,591.6,105.2z"/>
		<path id="eye_rim_1_" fill="#FFCC2F" d="M585.6,118.1c0,3.3,2.6,5.9,5.9,5.9c3.3,0,5.9-2.6,5.9-5.9c0-3.3-2.6-5.9-5.9-5.9
			C588.3,112.2,585.6,114.8,585.6,118.1z"/>
		<path id="eye_1_" fill="#543729" d="M588,118.1c0,2,1.6,3.5,3.5,3.5c2,0,3.5-1.6,3.5-3.5c0-2-1.6-3.5-3.5-3.5
			C589.6,114.6,588,116.1,588,118.1z"/>
		<ellipse id="pupil_highlight_1_" fill="#FFFFFF" cx="591.5" cy="116.5" rx="2.1" ry="1.3"/>
		<path id="beak_1_" fill="#CECECE" d="M603.6,115.1c-2.7,1.6-2.6,6.6-1.4,9.1c2.3-0.9,5.5-2.6,6-2.9c0.5-0.3-0.3-1.5,1.7-1.5
			c2.7,0,5.1,0.8,5.8,1.1C615.3,120.1,609.8,115.1,603.6,115.1z"/>
		<path id="outline_1_" fill="#543729" d="M631.8,131.9c-3.5-3.3-20.9-5.4-26.4-6c0.3-0.6,0.5-1.3,0.7-1.9c0.7-0.3,1.6-0.6,2.4-0.9
			c0.1,0.3,0.6,1.5,0.9,2c11.1,0.3,11.6-8.2,12.1-10.5c0.4-2.3,0.4-4.5,4.2-8.5c-5.6-1.6-13.8,2.6-16.5,8.8c-1-0.4-2-0.7-3.1-0.8
			c-0.7-2.9-4.5-11.1-14.4-11.1c-6.4,0-12.9,2.7-17.8,7.3c-2.6,2.5-4.7,5.5-6.1,8.8c-1.6,3.6-2.3,7.6-2.3,11.8
			c0,14.8,10.1,27.7,15.8,27.7c2.5,0,4.6-1.9,5.1-3.5c0.4,1.1,1.7,4.7,2.1,5.6c0.6,1.3,3.5,2.5,4.8,1.1c1.6,0.9,4.6,1.5,6.3-1
			c3.1,0.7,5.9-1.2,6-3.4c1.5-0.1,2.3-2.2,2-4c-0.2-1.3-2.9-5.8-3.9-7.4c2,1.7,7.2,2.1,7.9,0c3.3,2.6,8.4,1.2,8.8-0.9
			c4,1,8.6-1.2,7.9-4C634.4,140.5,633.6,133.6,631.8,131.9z M615,120.5c-1.7-0.7-3.8-1.1-5.4-1.1c-2.1,0-3.4,1.2-5.5,1.2
			c-0.4,0-1.4,0-2.2-0.3c0.5,0.6,1.2,0.9,2.5,0.9c0.8,0,2.3-0.4,3.5-0.8c0,0.3,0,0.5,0.1,0.8c-2.3,0.6-4.7,2-5.4,2.4
			c-1.6-3.4-0.2-6.7,1-8.2C609.2,115.5,613.7,119.3,615,120.5z M617.4,120.3l-0.8-0.8c-0.9-0.8-1.8-1.6-2.7-2.2
			c1.4-2.8,3.1-5.8,5.3-7.6c-2.4,1-4.8,3.9-6.2,7c-0.7-0.5-1.5-0.9-2.2-1.2c2-4.2,6.6-7.7,11.6-8C619,110.5,620.3,116.6,617.4,120.3
			z M610.5,123.1c-0.4-0.8-0.8-2.2-0.7-2.9c0.6,0,1.8,0.2,2,0.3c-0.1,0.4-0.1,1.2-0.1,1.3c0.1-0.2,0.5-0.9,0.6-1.2
			c1.2,0.2,2.8,0.6,3.7,1.1C614.9,122.3,613,123.1,610.5,123.1z M602.9,113.6c-4.4,4.5-2.7,10.1-1.1,12.7c-2.3,3.8-6.8,6.4-12,7.6
			c5.9,0,9.3-1.5,11.3-3c1.3-0.9,2-1.9,2.3-2.4c8.7,0.6,22.5,3.4,23.8,4.3c0.5,0.4,1.1,1.2,1.2,1.9c-6.5-0.9-18.3-1.9-21.4-2
			c2.2,0.3,18.2,3.3,20.9,4c-0.8,1.4-2.8,2.3-5.7,1.7c1.6,2.1-1.5,4.7-5.7,3.3c0.9,2.1-2.8,4-7.1,1.8c0.1,2.1-5.3,2.3-7.4,0
			c0,0.3,0.3,0.8,0.4,1c-0.7,6.1-5.7,9.9-10.8,9.9c-12.5,0-23.5-10.2-23.5-23.7c0-14.3,10.6-25,23.4-25
			C598.9,105.7,602.2,111.5,602.9,113.6z"/>
	</g>
</g>
<g>
	<path id="path3165_1_" fill="#131B28" d="M190.2,28.6L190.2,28.6l-1.2,4.1L190.2,28.6L190.2,28.6
		z"/>
	<path id="path3167_1_" fill="#131B28" d="M196.2,37.4l-1.3,0L196.2,37.4z"/>
	<path id="path3169_1_" fill="#131B28" d="M195.8,43.5L195.8,43.5l-7.6,0L195.8,43.5L195.8,43.5z"
		/>
	<path id="path3171_1_" fill="#131B28" d="M197.4,37.4l-1.3,0L197.4,37.4z"/>
	<path id="path3173_1_" fill="#131B28" d="M196.5,43l1.3-5.1L196.5,43L196.5,43L196.5,43z"/>
	<path id="path3175_1_" fill="#131B28" d="M224.5,19.7L222,31.3L224.5,19.7z"/>
	<path id="path3177_1_" fill="#131B28" d="M218.2,19.7l-1.9,8.7L218.2,19.7L218.2,19.7z"/>
	<path id="path3179_1_" fill="#131B28" d="M224.1,19.2h-5.3c-0.3,0-0.6,0.2-0.6,0.5l-1.9,8.7
		l-1.9,8.7c-0.1,0.3-0.4,0.5-0.6,0.5h-3.2H210c-3.7,0-3.3-2.6-2.5-6.1c0,0,0-0.1,0-0.1l0.1-0.4c0,0,0-0.1,0-0.1l0.2-0.9l0.2-1
		c0.1-0.3,0.1-0.7,0.2-1l0.9-4.2l0.9-4.2c0.1-0.3-0.1-0.5-0.4-0.5H204c-0.3,0-0.6,0.2-0.6,0.5l-1.2,5.5l-1.2,5.5c0,0,0,0,0,0
		l-0.1,0.5c-1.3,6.1-1,12,6.3,12.2c0.1,0,0.2,0,0.2,0h11.5c0.3,0,0.6-0.2,0.6-0.5l2.5-11.6l2.5-11.6
		C224.6,19.5,224.4,19.2,224.1,19.2L224.1,19.2z"/>
	<path id="path3181_1_" fill="#131B28" d="M245.1,37.7c0.3,0,0.5,0.2,0.4,0.5l-0.5,2.5"/>
	<path id="path3183_1_" fill="#131B28" d="M244.5,43.2l0.5-2.5L244.5,43.2
		C244.5,43.2,244.5,43.2,244.5,43.2L244.5,43.2z"/>
	<path id="path3185_1_" fill="#131B28" d="M243.9,43.7C243.9,43.7,243.9,43.7,243.9,43.7
		c-1.6,0-6.2,0-9.7,0C238.4,43.8,243.9,43.7,243.9,43.7L243.9,43.7z"/>
	<path id="path3187_1_" fill="#131B28" d="M231,34.4c0-0.3,0.3-0.7,0.6-0.7l-0.7,0
		C230.7,36.7,231,34.4,231,34.4L231,34.4z"/>
	<path id="path3189_1_" fill="#131B28" d="M234.7,43.8c0,0-0.1,0-0.1,0
		C234.6,43.8,234.6,43.8,234.7,43.8z"/>
	<path id="path3191_1_" fill="#131B28" d="M245.1,37.7c0.3,0,0.5,0.2,0.4,0.5l-0.5,2.5l-0.1,0.4"
		/>
	<path id="path3193_1_" fill="#131B28" d="M237.2,43.8L237.2,43.8L237.2,43.8z"/>
	<path id="path3195_1_" fill="#131B28" d="M235.9,43.8L235.9,43.8L235.9,43.8z"/>
	<path id="path3197_1_" fill="#131B28" d="M235.5,43.8c0,0-0.1,0-0.1,0
		C235.4,43.8,235.4,43.8,235.5,43.8z"/>
	<path id="path3199_1_" fill="#131B28" d="M235.1,43.8H235H235.1z"/>
	<path id="path3201_1_" fill="#131B28" d="M235.8,43.8c-0.1,0-0.2,0-0.3,0
		C235.6,43.8,235.7,43.8,235.8,43.8z"/>
	<path id="path3203_1_" fill="#131B28" d="M237.1,43.8c-0.4,0-0.9,0-1.3,0
		C236.3,43.8,236.7,43.8,237.1,43.8z"/>
	<path id="path3205_1_" fill="#131B28" d="M243.9,43.7L243.9,43.7c-1.1,0-4,0-6.8,0
		C240,43.8,242.8,43.7,243.9,43.7z"/>
	<path id="path3207_1_" fill="#131B28" d="M244.5,43.2l0.4-2.1L244.5,43.2
		C244.5,43.2,244.5,43.2,244.5,43.2L244.5,43.2z"/>
	<path id="path3209_1_" fill="#131B28" d="M235.3,43.8h-0.3H235.3z"/>
	<path id="path3211_1_" fill="#131B28" d="M234.6,43.8h-0.4H234.6z"/>
	<path id="path3213_1_" fill="#131B28" d="M235,43.8h-0.3H235z"/>
	<path id="path3215_1_" fill="#131B28" d="M157.7,34.5l0.8-3.6l-0.9,4.2l-0.9,4.2l0.8-3.7
		C157.5,35.3,157.7,34.8,157.7,34.5L157.7,34.5z"/>
	<path id="path3217_1_" fill="#131B28" d="M167.5,19.2h-5.8c-0.3,0-0.6,0.2-0.7,0.5l-0.5,2.4
		l-0.5,2.4c-0.1,0.3,0.1,0.5,0.4,0.5h5.8c0.3,0,0.6-0.2,0.6-0.5l0.5-2.4l0.5-2.4v0C168,19.4,167.8,19.2,167.5,19.2L167.5,19.2z"/>
	<path id="path3219_1_" fill="#131B28" d="M166.3,27.2L166.3,27.2l-1.7,7.9L166.3,27.2L166.3,27.2
		z"/>
	<path id="path3221_1_" fill="#131B28" d="M149.4,53.3c0,0,2.9,0,4.8,0
		C152.8,53.3,150.5,53.3,149.4,53.3C149.4,53.3,149.4,53.3,149.4,53.3L149.4,53.3z"/>
	<path id="path3223_1_" fill="#131B28" d="M159.4,27.2l-0.8,3.6L159.4,27.2z"/>
	<path id="path3225_1_" fill="#131B28" d="M165.9,26.7H160c-0.3,0-0.6,0.2-0.7,0.5l-0.8,3.6
		l-0.8,3.6c-0.1,0.3-0.2,0.8-0.2,1l-0.8,3.7l-0.8,3.7c-0.1,0.3-0.2,0.7-0.3,1c0,0-1.1,3.2-2.9,3.2c-0.1,0-0.2,0-0.2,0
		c-0.9,0-1.6,0-1.6,0h0c-0.3,0-0.6,0.2-0.7,0.5l-0.6,2.5l-0.6,2.5c-0.1,0.3,0.1,0.5,0.4,0.5c1,0,3.4,0,4.8,0c4.6,0,7-2.5,8.6-9.8
		l1.8-8.4l1.7-7.9C166.3,26.9,166.1,26.7,165.9,26.7L165.9,26.7z"/>
	<path id="path3227_1_" fill="#131B28" d="M248.9,43.5c-0.3,0-0.5-0.2-0.4-0.5l4.4-20.6"/>
	<path id="path3229_1_" fill="#131B28" d="M255,43l1.8-8.8L255,43z"/>
	<path id="path3231_1_" fill="#131B28" d="M248.5,43.2c0-0.1,0-0.5,0-0.8l2.1-9.8L248.5,43
		c-0.1,0.3,0.1,0.5,0.4,0.5h0.5C249.1,43.5,248.5,43.4,248.5,43.2L248.5,43.2z"/>
	<path id="path3233_1_" fill="#131B28" d="M254.6,43.4c-0.2,0.1-0.5,0.1-0.8,0.1h0.5
		c0.3,0,0.6-0.2,0.6-0.5l0.1-0.5C255,42.7,254.8,43.3,254.6,43.4L254.6,43.4z"/>
	<path id="path3235_1_" fill="#131B28" d="M255.9,38.6l0.8-3.9c0,0,0,0,0,0L255.9,38.6L255.9,38.6
		z"/>
	<path id="path3237_1_" fill="#131B28" d="M273.2,23.7l0.2,1c0.1,0.3-0.1,0.5-0.4,0.5"/>
	<path id="path3239_1_" fill="#131B28" d="M255.1,42.4l0.8-3.9L255.1,42.4z"/>
	<path id="path3241_1_" fill="#131B28" d="M273,22.7l0.2,1L273,22.7z"/>
	<path id="path3243_1_" fill="#131B28" d="M256.7,34.7c0.1-0.3,0.2-0.8,0.2-1l0.8-3.9l-0.9,4.4
		L256.7,34.7L256.7,34.7z"/>
	<path id="path3245_1_" fill="#131B28" d="M252.9,22c-0.1,0.3-0.1,0.6-0.2,0.9l-2.1,9.8l2.2-10.3
		L252.9,22L252.9,22z"/>
	<path id="path3247_1_" fill="#131B28" d="M273.5,24.7l-0.2-1l-0.2-1l-0.1-0.5
		c-0.5-1.8-1.9-2.9-4.9-2.9l-4.7,0l-4.3,0h-0.4H254c-0.3,0-0.6,0.2-0.6,0.5h0l-0.2,1l-0.3,1.2l-0.1,0.3l-2.2,10.3l-2.1,9.8
		c-0.1,0.3-0.1,0.6,0,0.8c0,0.1,0.6,0.3,0.9,0.3h4.4c0.3,0,0.7-0.1,0.8-0.1c0.2-0.1,0.4-0.6,0.5-0.9l0.8-3.9l0.8-3.9c0,0,0,0,0,0
		l0.1-0.5l0.9-4.4l0.8-3.9c0.1-0.3,0.4-0.5,0.6-0.5l13.9,0C273.3,25.3,273.5,25,273.5,24.7L273.5,24.7z"/>
	<path id="path3249_1_" fill="#131B28" d="M291.3,15.7c-0.3,0-0.8,0-1.1,0h-4.4
		c-0.3,0-0.7,0.2-0.8,0.4l-9.8,14.4c-0.2,0.2-0.4,0.2-0.4-0.1l-0.7-3.2c-0.1-0.3-0.4-0.5-0.7-0.5h-6.3c-0.3,0-0.5,0.2-0.4,0.5
		l2.8,9.9c0.1,0.3,0.1,0.7,0,1l-1.2,4.8c-0.1,0.3,0.1,0.5,0.4,0.5h6.2c0.3,0,0.6-0.2,0.7-0.5l1.2-4.8c0.1-0.3,0.3-0.7,0.5-0.9
		l15.9-21.1c0.2-0.2,0.1-0.4-0.2-0.4L291.3,15.7L291.3,15.7z"/>
	<path id="path3251_1_" fill="#131B28" d="M241.2,28.1L241.2,28.1c0,0.3-0.3,0.5-0.6,0.5h-8
		c-0.3,0-0.4-0.2-0.4-0.4c0,0,0,0,0,0c0,0,0,0,0,0c0,0,0,0,0,0c0,0,0-0.1,0-0.1c0.8-2,2.3-3.4,5.2-3.4
		C240.8,24.7,241.4,26.3,241.2,28.1L241.2,28.1z M238.9,18.9c-10.3,0-12.7,6.2-14.1,12.5c-1.4,6.4-1.2,12.4,9.4,12.4h0.4
		c0,0,0.1,0,0.1,0h0.3h0.1h0.3c0,0,0.1,0,0.1,0c0.1,0,0.2,0,0.3,0h0.1c0.4,0,0.8,0,1.3,0h0c2.8,0,5.6,0,6.8,0c0.3,0,0.6-0.2,0.6-0.5
		l0.4-2.1l0.1-0.4l0.5-2.5c0.1-0.3-0.1-0.5-0.4-0.5h-9.5c-3.8,0-4.9-1-4.5-4h15.3l0,0c0,0,0,0,0,0c0.2,0,0.5-0.2,0.6-0.4
		c0,0,0-0.1,0-0.1l0,0C249.2,24.6,248.6,18.9,238.9,18.9L238.9,18.9z"/>
	<path id="path3253_1_" fill="#131B28" d="M190.4,28.1l-0.1,0.5c0,0,0,0,0,0l-1.2,4.1l-1.2,4.1
		c-0.1,0.3-0.4,0.5-0.7,0.5h-6.1c-4.6,0-5.8-3.6-4.6-9c1.1-5.5,3.3-8.9,7.9-9.2C190.6,18.6,191.9,23,190.4,28.1L190.4,28.1z
		 M194.6,36.9c0,0,2.9-7,3.5-11c0.9-5.4-1.8-13.2-12.3-13.2c-10.4,0-14.9,7.5-16.6,15.6c-1.7,8.2,0.5,15.4,10.9,15.3l8.1,0l7.6,0
		c0.3,0,0.6-0.2,0.7-0.5l1.3-5.1c0.1-0.3-0.1-0.5-0.4-0.5l-1.3,0l-1.3,0c-0.2,0-0.4-0.2-0.4-0.4C194.5,37,194.5,37,194.6,36.9
		L194.6,36.9z"/>
	<path id="path3255_1_" fill="#131B28" d="M245.9,32.3c0,0.2-0.2,0.4-0.4,0.4
		c-0.2,0-0.4-0.2-0.4-0.4c0-0.2,0.2-0.3,0.4-0.3C245.8,31.9,245.9,32.1,245.9,32.3z"/>
	<path id="path3257_1_" fill="#0868AC" d="M115.3,23.2c-2.9,4.1-2.5,9.5-0.3,13.9
		c0.1,0.1,0.1,0.2,0.2,0.3c0,0.1,0.1,0.1,0.1,0.2c0,0,0,0.1,0.1,0.1c0,0.1,0.1,0.1,0.1,0.2c0.1,0.1,0.1,0.2,0.2,0.4
		c0,0.1,0.1,0.1,0.1,0.2c0.1,0.1,0.2,0.3,0.2,0.4c0,0.1,0.1,0.1,0.1,0.2c0.1,0.2,0.2,0.3,0.4,0.5c0,0,0,0,0,0c0,0,0,0.1,0.1,0.1
		c0.1,0.1,0.2,0.3,0.3,0.4c0,0.1,0.1,0.1,0.1,0.2c0.1,0.1,0.2,0.2,0.3,0.4c0,0,0.1,0.1,0.1,0.1c0.1,0.2,0.3,0.3,0.4,0.5c0,0,0,0,0,0
		c0,0,0,0,0,0c0.1,0.1,0.3,0.3,0.4,0.4c0,0,0.1,0.1,0.1,0.1c0.1,0.1,0.2,0.2,0.3,0.3c0,0,0.1,0.1,0.1,0.1c0.2,0.1,0.3,0.3,0.5,0.4
		c0,0,0,0,0,0c0,0,0.1,0,0.1,0.1c0.1,0.1,0.3,0.2,0.4,0.4c0.1,0,0.1,0.1,0.2,0.1c0.1,0.1,0.2,0.2,0.3,0.3c0.1,0,0.1,0.1,0.2,0.1
		c0.1,0.1,0.3,0.2,0.4,0.3c0,0,0.1,0.1,0.1,0.1c0,0,0,0,0,0c0.1,0.1,0.3,0.2,0.4,0.3c0.1,0,0.1,0.1,0.2,0.1c0.2,0.1,0.4,0.2,0.6,0.4
		c0.1,0,0.1,0.1,0.2,0.1c0.1,0.1,0.3,0.2,0.4,0.2c0.1,0,0.2,0.1,0.2,0.1c0.1,0.1,0.2,0.1,0.3,0.2c0,0,0,0,0.1,0c0,0,0.1,0,0.1,0.1
		c0.2,0.1,0.3,0.2,0.5,0.2c0,0,0.1,0,0.1,0c0.2,0.1,0.4,0.2,0.6,0.2c0,0,0.1,0,0.1,0.1c0.2,0.1,0.4,0.1,0.6,0.2c0,0,0,0,0.1,0
		c0.2,0.1,0.4,0.1,0.6,0.2c0,0,0.1,0,0.1,0c0.2,0.1,0.4,0.1,0.6,0.2c13.9,2.5,17.9-8.3,17.9-8.3c-3.4,4.4-9.4,5.6-15.1,4.3
		c-0.2,0-0.4-0.1-0.6-0.2c-0.1,0-0.1,0-0.2,0c-0.2-0.1-0.4-0.1-0.6-0.2c0,0-0.1,0-0.1,0c-0.2-0.1-0.4-0.1-0.5-0.2
		c-0.1,0-0.1,0-0.2-0.1c-0.2-0.1-0.4-0.2-0.6-0.2c0,0-0.1,0-0.1-0.1c-0.2-0.1-0.3-0.2-0.5-0.2c0,0-0.1,0-0.1-0.1
		c-0.1-0.1-0.3-0.1-0.4-0.2c-0.1,0-0.2-0.1-0.3-0.1c-0.2-0.1-0.3-0.2-0.5-0.3c-0.1,0-0.1-0.1-0.2-0.1c-0.2-0.1-0.4-0.2-0.6-0.4
		c-0.1,0-0.1-0.1-0.2-0.1c-0.1-0.1-0.3-0.2-0.4-0.3c0,0-0.1-0.1-0.1-0.1c-0.1-0.1-0.3-0.2-0.4-0.3c-0.1,0-0.1-0.1-0.2-0.1
		c-0.1-0.1-0.2-0.2-0.4-0.3c-0.1,0-0.1-0.1-0.2-0.1c-0.2-0.1-0.3-0.2-0.4-0.4c0,0,0,0,0,0c-0.2-0.1-0.3-0.3-0.5-0.4
		c0,0-0.1-0.1-0.1-0.1c-0.1-0.1-0.2-0.2-0.3-0.3c0,0-0.1-0.1-0.1-0.1c-0.1-0.1-0.3-0.3-0.4-0.4c0,0,0,0,0,0
		c-0.1-0.2-0.3-0.3-0.4-0.5c0,0-0.1-0.1-0.1-0.1c-0.1-0.1-0.2-0.2-0.3-0.4c0,0-0.1-0.1-0.1-0.1c-0.1-0.2-0.2-0.3-0.4-0.5
		c-3.2-4.3-4.3-10.2-1.8-15.1"/>
	<path id="path3259_1_" fill="#0868AC" d="M124.2,19.7c-2.1,3-2,7-0.3,10.1c0.3,0.5,0.6,1,0.9,1.5
		c0.3,0.4,0.7,1,1.1,1.3c0.1,0.2,0.3,0.3,0.5,0.5c0,0,0.1,0.1,0.1,0.1c0.2,0.2,0.3,0.3,0.5,0.4c0,0,0,0,0,0c0,0,0,0,0,0
		c0.2,0.2,0.4,0.3,0.6,0.5c0,0,0.1,0.1,0.1,0.1c0.2,0.1,0.4,0.3,0.6,0.4c0,0,0,0,0,0c0.1,0.1,0.2,0.1,0.3,0.2c0,0,0.1,0.1,0.1,0.1
		c0.1,0.1,0.3,0.2,0.4,0.3c0,0,0,0,0.1,0c0.1,0.1,0.3,0.1,0.4,0.2c0,0,0.1,0,0.1,0.1c0.1,0,0.2,0.1,0.3,0.1c0,0,0,0,0,0
		c0.2,0.1,0.4,0.2,0.6,0.3c0,0,0.1,0,0.1,0.1c0.2,0.1,0.3,0.1,0.5,0.2c0.1,0,0.1,0,0.2,0.1c0.1,0.1,0.3,0.1,0.4,0.1
		c0.1,0,0.1,0,0.2,0.1c0.2,0.1,0.4,0.1,0.6,0.2c10.7,1.8,13.2-6.5,13.2-6.5c-2.2,3.2-6.5,4.7-11.1,3.5c-0.2-0.1-0.4-0.1-0.6-0.2
		c-0.1,0-0.1,0-0.2-0.1c-0.1,0-0.3-0.1-0.4-0.1c-0.1,0-0.1,0-0.2-0.1c-0.2-0.1-0.3-0.1-0.5-0.2c0,0-0.1,0-0.1-0.1
		c-0.2-0.1-0.4-0.2-0.6-0.3c-0.1,0-0.2-0.1-0.3-0.1c-0.1,0-0.1-0.1-0.2-0.1c-0.1-0.1-0.2-0.1-0.4-0.2c0,0-0.1,0-0.1,0
		c-0.1-0.1-0.3-0.2-0.4-0.3c0,0-0.1-0.1-0.1-0.1c-0.1-0.1-0.2-0.1-0.3-0.2c-0.2-0.1-0.4-0.3-0.6-0.4c0,0-0.1-0.1-0.1-0.1
		c-2-1.6-3.6-3.8-4.4-6.2c-0.8-2.6-0.6-5.4,0.8-7.8"/>
	<path id="path3261_1_" fill="#0868AC" d="M131.7,17.1c-1.2,1.8-1.3,4-0.5,6
		c0.9,2.1,2.7,3.8,4.9,4.5c0.1,0,0.2,0.1,0.3,0.1c0,0,0.1,0,0.1,0c0.1,0,0.3,0.1,0.4,0.1c5.9,1.1,7.5-3,7.9-3.6
		c-1.4,2-3.8,2.5-6.7,1.8c-0.2-0.1-0.5-0.1-0.7-0.2c-0.3-0.1-0.6-0.2-0.8-0.3c-0.5-0.2-1-0.5-1.5-0.9c-2.6-2-4.2-5.7-2.5-8.8"/>
	<path id="path3263_1_" fill="#0868AC" d="M198.2,52.1l-1.7,3.9h-1.9l0.2-3.5l-1.4,3.5h-1.8l0-3.9
		l0.2-1h1.3l-0.2,3.8l1.4-3.8h1.8l-0.1,3.9l1.4-3.9h1.1L198.2,52.1L198.2,52.1z"/>
	<path id="path3265_1_" fill="#0868AC" d="M201.2,53.3c0.2-0.8,0.1-0.9-0.3-0.9h-0.6l-0.4,1.8
		l-0.6,1.9h-1.1l0.9-4.2l0.1-0.6h1l0.1,0.3c0,0,0.6-0.3,1.1-0.3c1.2,0,1.1,0.9,0.9,2.2L201.2,53.3L201.2,53.3z"/>
	<path id="path3267_1_" fill="#0868AC" d="M204.8,50.6c-0.5,0-0.8-0.1-0.7-0.7
		c0.1-0.6,0.5-0.7,1-0.7c0.5,0,0.8,0.1,0.7,0.7C205.6,50.4,205.2,50.6,204.8,50.6L204.8,50.6z M204.2,56h-1.1l0.2-1.9l0.4-1.8
		l-0.8-0.2l0.2-1h2.1L204.2,56L204.2,56z"/>
	<path id="path3269_1_" fill="#0868AC" d="M209,52.2l-1.4,0.2l-0.4,1.8c-0.1,0.5-0.1,0.7,0.3,0.7
		h0.9l-0.2,1c0,0-0.8,0.2-1.2,0.2c-1.4,0-1.4-0.8-1.1-1.9l0.4-1.8l-0.8-0.2l0.2-1h0.8L207,50h1.1l-0.3,1.2h1.3L209,52.2L209,52.2z"
		/>
	<path id="path3271_1_" fill="#0868AC" d="M211.8,52.3c-0.6,0-1,0.3-1.1,0.9l1.8-0.2
		C212.6,52.6,212.5,52.3,211.8,52.3L211.8,52.3z M210.5,54.1c-0.1,0.6,0.1,0.8,0.9,0.8h1.9l-0.2,0.9c0,0-1.1,0.3-2,0.3
		c-2.1,0-2.1-1.2-1.9-2.5c0.3-1.3,0.8-2.5,2.8-2.5c2,0,2.1,1.2,1.6,3L210.5,54.1L210.5,54.1z"/>
	<path id="path3273_1_" fill="#0868AC" d="M218,56h-1.1l0.2-1.9l0.8-3.6l-0.8-0.2l0.2-1h2.1
		L218,56L218,56z"/>
	<path id="path3275_1_" fill="#0868AC" d="M221.9,52.3c-0.6,0-1,0.3-1.1,0.9l1.8-0.2
		C222.7,52.6,222.6,52.3,221.9,52.3L221.9,52.3z M220.6,54.1c-0.1,0.6,0.1,0.8,0.9,0.8h1.9l-0.2,0.9c0,0-1.1,0.3-2,0.3
		c-2.1,0-2.1-1.2-1.9-2.5c0.3-1.3,0.8-2.5,2.8-2.5c2,0,2.1,1.2,1.6,3L220.6,54.1L220.6,54.1z"/>
	<path id="path3277_1_" fill="#0868AC" d="M228.8,52.3c0,0-1.4,0-1.8,0c-0.8,0-0.9,0.2-0.9,0.5
		l0,0.2l2.6,0.2c0,0,0,0.8-0.1,1.3c-0.2,0.8-0.9,1.5-2.4,1.5c-0.7,0-1.9-0.3-1.9-0.3l0.2-0.9h1.8c0.8,0,0.9-0.2,0.9-0.4l0.1-0.3
		l-2.5-0.2c0,0-0.1-0.6,0-1.3c0.2-0.9,1-1.6,2.4-1.6c0.7,0,1.9,0.3,1.9,0.3L228.8,52.3L228.8,52.3z"/>
	<path id="path3279_1_" fill="#0868AC" d="M233.5,52.3c0,0-1.4,0-1.8,0c-0.8,0-0.9,0.2-0.9,0.5
		l0,0.2l2.6,0.2c0,0,0,0.8-0.1,1.3c-0.2,0.8-0.9,1.5-2.4,1.5c-0.7,0-1.9-0.3-1.9-0.3l0.2-0.9h1.8c0.8,0,0.9-0.2,0.9-0.4l0.1-0.3
		l-2.5-0.2c0,0-0.1-0.6,0-1.3c0.2-0.9,1-1.6,2.4-1.6c0.7,0,1.9,0.3,1.9,0.3L233.5,52.3L233.5,52.3z"/>
	<path id="path3281_1_" fill="#0868AC" d="M235,56.8h-0.9l0-0.7c-0.3,0-0.5-0.3-0.4-0.7
		c0.1-0.6,0.5-0.7,1-0.7c0.5,0,0.8,0.1,0.7,0.7L235,56.8L235,56.8z"/>
	<path id="path3283_1_" fill="#0868AC" d="M241.3,52.4c-0.7,0-1,0.4-1.1,1.2
		c-0.2,0.8-0.1,1.2,0.6,1.2h1l0.5-2.4H241.3z M242.9,55.4l-0.1,0.6l-1,0l-0.1-0.3c0,0-0.9,0.4-1.5,0.4c-1.5,0-1.6-1.2-1.3-2.5
		c0.3-1.3,0.9-2.5,2.4-2.5c0.5,0,1.3,0.3,1.3,0.3l0.6-2h1.1L242.9,55.4L242.9,55.4z"/>
	<path id="path3285_1_" fill="#0868AC" d="M246.9,52.3c-0.9,0-1.2,0.5-1.4,1.3
		c-0.2,0.8-0.1,1.3,0.8,1.3c0.9,0,1.2-0.5,1.4-1.3C247.9,52.9,247.8,52.3,246.9,52.3L246.9,52.3z M246.1,56.1c-2,0-2.1-1.2-1.8-2.5
		c0.3-1.3,1-2.5,2.9-2.5c1.9,0,2.1,1.2,1.8,2.5C248.7,54.9,248,56.1,246.1,56.1z"/>
	<path id="path3287_1_" fill="#0868AC" d="M257.1,56l0.2-1.9l0.1-0.5c0.2-0.7,0.2-1.2-0.5-1.2
		h-0.6c0,0.4,0,0.8-0.1,1.2l-0.5,2.4h-1.1l0.2-1.9l0.1-0.5c0.2-0.7,0.2-1.2-0.5-1.2H254l-0.8,3.6h-1.3l1-4.8h1l0.2,0.3
		c0,0,0.7-0.4,1.2-0.4c0.4,0,0.7,0.2,0.8,0.4c0.2-0.1,0.9-0.4,1.4-0.4c1.5,0,1.5,1.2,1.2,2.5l-0.5,2.4L257.1,56L257.1,56z"/>
	<path id="path3289_1_" fill="#0868AC" d="M262.2,52.3c-0.9,0-1.2,0.5-1.4,1.3
		c-0.2,0.8-0.1,1.3,0.8,1.3c0.9,0,1.2-0.5,1.4-1.3C263.2,52.9,263.1,52.3,262.2,52.3z M261.4,56.1c-2,0-2.1-1.2-1.8-2.5
		c0.3-1.3,1-2.5,2.9-2.5c1.9,0,2.1,1.2,1.8,2.5C264,54.9,263.3,56.1,261.4,56.1z"/>
	<path id="path3291_1_" fill="#0868AC" d="M267.5,53.3c0.2-0.8,0.1-0.9-0.3-0.9h-0.6l-0.4,1.8
		l-0.6,1.9h-1.1l0.9-4.2l0.1-0.6h1l0.1,0.3c0,0,0.6-0.3,1.1-0.3c1.2,0,1.1,0.9,0.9,2.2L267.5,53.3L267.5,53.3z"/>
	<path id="path3293_1_" fill="#0868AC" d="M271.8,52.3c-0.6,0-1,0.3-1.1,0.9l1.8-0.2
		C272.6,52.6,272.5,52.3,271.8,52.3L271.8,52.3z M270.5,54.1c-0.1,0.6,0.1,0.8,0.9,0.8h1.9l-0.2,0.9c0,0-1.1,0.3-2,0.3
		c-2.1,0-2.1-1.2-1.9-2.5c0.3-1.3,0.8-2.5,2.8-2.5c2,0,2.1,1.2,1.6,3L270.5,54.1L270.5,54.1z"/>
	<path id="path3295_1_" fill="#0868AC" d="M274.7,56.1c-0.5,0-0.8-0.1-0.7-0.7
		c0.1-0.6,0.5-0.7,1-0.7c0.5,0,0.8,0.1,0.7,0.7C275.5,55.9,275.2,56.1,274.7,56.1z"/>
</g>
</svg>
